/* XPM */
static char *_646547c23f14f5a8038feec01bebca2[] = {
/* columns rows colors chars-per-pixel */
"64 64 11 1 ",
"  c #000001",
". c #181818",
"X c gray12",
"o c #2A2A2A",
"O c #000046",
"+ c #000059",
"@ c #00007D",
"# c gray28",
"$ c #0000A5",
"% c #0000C3",
"& c #2D2CC1",
/* pixels */
"o+++++++++++++++++++++++++++oo+++++++++++++oo++++++++++++o+++++o",
".@@@@@@@@@@@@@@@@@@@@@@@@+++ .@@@@@@@@@++++ .@@@@@@@@+++O $$$$@ ",
".@@@+@+@@@+@@+@@@++@++++++OO .@@@@+@@@++++O .@$$$$$$$$$@+ $$+@+ ",
".@@++@@@++@@@O@@O+++@@+++OOO .@@@@+@@+++@+O .@$$$@$$$$@@+ @@$@O ",
".@+@+@+@+++@+++O++@O++OOOOOO .@@++@@++++OOO .@$$@$$$@@+++ ++++O ",
".@++@@@O+++@@@@++++O+++++OOO .@@+@@+++++OOO .@$@$&$@$@@++ @++OO ",
".@@@$$@@@@@@@@@++O+O+++++OOO .@@@++++++++OO .@$$@$$@@$+++ @+OOO ",
".@@@@$$@@+O@@@++++++O+++OOOO .@@++++++++OOO .@$$$@$$$@+++ @OOOO ",
".@@+@@@+@+@+++++OO++O+++OOOO .@@++++@@+++OO .@$$$$++@@@+O       ",
".@+++@+++@@+OOO+O++++O++OOOO .@++++++++OOOO .@$$@$+++@+OO @$$$@ ",
".@++@+++@@@++OOO+O++O++++OOO .@++++++++OOOO .@$$$@+++++OO @$@$+ ",
".@+@++@+O+O+OOOOOO+OOO+++OOO .@++++++O+O+OO .@$$$$@++@+OO @@+@O ",
".@+@+O+++O+O+OO+O+OOOOO++OOO .@++++OO+OOOOO .@$$$@@@+++OO @@@+O ",
".@@++++OOOO+O+OOOOOOOOOOOOOO .++++OOOOOOOOO .@$@$+@+@++OO +++O+ ",
".@+@OO+O+O+OOOOOOOOOOOOOOOOO .+O+OOOOOOOOOO .@$$$$+@++OOO ++OOO ",
".                            .              .@$$@@@++OOOO       ",
"@$$@$@@@@@$@@@@..............................@$$@$+@++OOO +$$$$$",
"$$@@@$$@+@@+@@+ ..O+@+@@@@++OOOO...O+@@@++++.@$$$@@$@++OO +$$%$$",
"$$@@+@@++@@++@@ .O+@@@@@$@@+O++OO..+@@+++++O @@@$$@@+++OO @$%%%$",
"$@@$$@@+++@++++ .@@@$@$$++@O+OOO+..+@++O+OO+ +$$$$@++OOOO @$$%$$",
"@+@$$$++@@+@O++ O$@$+$@+O+++OOO++ .++@+++O+O +$$$+++++OOO $$$$@$",
"@@+@$$+@++OO+++ O@@$$@$@+++OOOOO+ .+@++OO+OO +@@@+++++OOO $$$$$@",
"$+++@@@++@O++OO O@$$@$@+++OOOO++O .++OOOOOOO +@@@++++OOOO $$$$$@",
"$@+@+@+@@+++O+O +@@@++++++++O+OO+ ..         +@@$+++++OOO $$$@@$",
"$$@+$@@@@+++OOO +@@++@++O++@+++++ @@$$@@@@+ .@@@@@+++OOOO @$$$$$",
"$@+++$$O+@+++OO +@++$@@++++$$++O+ @$$@@++++ .@$$@@+++OOOO @$$$$$",
"@@++@$$@@++++OO O+++@$@@++@$+++++ @@@@++@+O .@$$$@@++OOOO @$$$$@",
"$@$@@@$@O++++OO O+++$&$+@@+@+++O+ @@@++@+++ .@$@$@@++OO+O +$$$$$",
"@++@@@@@O+OOOOO O+++@$@@@@@+@+O+O @@@@@++++ .@@@@+@++OOOO +$$$$@",
"@@+@@@@++OOOOOO  ++@@+@+@$+$+OO+O @$$@++OOO .@@@+++++OOOO +$$$$$",
"@+@+@@+OOOOOOOO  O++@+@@@@$+OO+OO @@$@++++O .@@$@@+++O+OO +$$$@@",
"@++++++OO+++OOO .OO++++@@++@++OOO @@@@+OO+O .@@$$@++O++OO +$$$$@",
"@+@@++++O+++OOO ..OOOOOOOOOOOOOOO @@@O+++OO .@@$$@@@+O+OO +$$$++",
"@@@+++OOOO++OOO ...               @@++OOOOO .@$$@@@@@+OOO +$$+@+",
"+@@+++++OOOOOOO ..OOOOOO+++OOOOO..@+++OOOOO .@$$@@+@@+++O +$$$@@",
"++++++++OOOOOOO ..O++@@+@++++OOO .@@++OOOOO .@@$@$+++++OO +$$@@+",
"++O++O++OOOOOOO ..O+@@+@+++++++O .@@+@+OOOO .@@@$@@++OOOO +$$@++",
"+@+O+O+OOOOOOOO ..O@++@@+++O+@++ .@@@@++OOO .@$@@@+OO+OOO +$@+@+",
"++@++++OOOOOOOO ..O@+@++@++OO++O .@@@@+++OO .@$@@@+OOO+OO +$@@@+",
"+@++O+++OOOOOOO ..O+@@++OOOOOOOO .@@++++OOO .@$@@+++OOOOO +@@@+@",
"                ..O@++OOOOOO+++O .@@++O+OOO .@@@+O+OOOOOO .     ",
"......OO+++++++OOO.              .@@+O++OOO .++OOO++OOOOO .++++.",
"..@@$$$$$$$$$$$$$$$$@@@@+.........@@++OOOOO .++OOOOOOOO+O .+O+O.",
"..@$$$$$$@$$@@@$@@$$++++O .OOOO+..@+++OOOOO ..            .OOO+.",
"..@$$$@$$$$$@@$$$$@+$O+OO .O@+$+ .+++O+OOOO ....................",
"..$$$$$$$@@@$$@$+@@@++OOO .O@$@O .++O+OOOOO ..$$$$$$$$$$$$$$$$@.",
"..$@$@$$$@@@$@++@+@@@++OO .O$$@+ ..         ..$$$$$$@@$$$@@$$@+ ",
"..$$$@+$$@@@@$$@@@+@@+OOO .O@++O .+@@$@@@@++..$$$$$@$$@$@@$$@@+ ",
"..$$@@$$+@$$$+@@%@@O+OOOO .+@+OO .@@$@@$@$++ .$$$$@$$$++@++@+++ ",
"..$$$$@+$+$++@+@@@+@@+OOO .++OOO .@$$@++++OO .$$$$@$$@+++@@++++ ",
"..$@$@@@$$@+++@@++@++OO+O ..     .@@++++OOOO .$$$%%@@@@++@++@OO ",
"..$$@@$%$@+@++@@+++@++OOO ........           .$$@%%$$$@@$++@@OO ",
"..$@$@%&%@@@@+++++++OOOOO .@@@@@@@@@@@@@++++..$$@@$$@@+@++@@+OO ",
"..$$$$$%$@+@@OOO++++OOOOO .@@@+@+@@@+@@++++O .$@@$@+@+@+++@++OO ",
"..$@$$$$+++++OOOO+++OOOOO .@@+++@@@$@+++O+OO .$$@@@++++@@@++OOO ",
"..@$$$@++@@@@+OOOO+OO+OOO .@+@@$@@@@@@@+++OO .$$@@++++++@+OOO+O ",
"..$@$$++$+@@@++O+++OOOOOO .@@+@@+++@@@@++OOO .$$$$@++OO++OOOOOO ",
"..$@$@@++O+@@@+OO+++OOOOO .@+@@+@++@@@+++OOO .$$@@++@OOO+OOOOOO ",
"..$@+++@O+O+@@++O+++OO+OO .@@+++++++++++OOOO .$@@@$@++O+O+OOOOO ",
"..$@+O+O@++@OOOOOO++OOOOO .+@@+++O++++++OOOO .$$@+@+++OOOOOOOOO ",
"..@@++O+OOOO+O+O+OOOOOOOO .+@+++O++OO+OOOOOO .@+@++@++OOOOOOOOO ",
"..@@++@++++++OOOOOOOOOOOO .++++++++OOOOOO+O+..@@+++++OOOOOOOOOO.",
"oo+++++++++++++++++++++++oo+++++++++++++++++oo+++++++++++++++++X",
"################################################################"
};
