/* XPM */
static char *e5acc2213b04420b91b8d7f2a629ffd4[] = {
/* columns rows colors chars-per-pixel */
"64 64 256 2 ",
"   c #000000",
".  c #0A0A06",
"X  c #0C0D0A",
"o  c #050907",
"O  c #100F0F",
"+  c #170C03",
"@  c #0D1609",
"#  c #121204",
"$  c #13130C",
"%  c #1A1806",
"&  c #131412",
"*  c #1A1C14",
"=  c #1C1D1A",
"-  c #151D19",
";  c #211A0E",
":  c #1F201C",
">  c #1F2015",
",  c #23231C",
"<  c #29261A",
"1  c #36281D",
"2  c #201F20",
"3  c #1E2423",
"4  c #1A2624",
"5  c #242523",
"6  c #262823",
"7  c #2B2B24",
"8  c #252C29",
"9  c #2A2C29",
"0  c #292724",
"q  c #322D23",
"w  c #3B2D26",
"e  c #2E3124",
"r  c #2D312D",
"t  c #33332D",
"y  c #3B352C",
"u  c #37362A",
"i  c #333531",
"p  c #363932",
"a  c #3C3D35",
"s  c #3C3E3A",
"d  c #3A3731",
"f  c #42362D",
"g  c #44382F",
"h  c #48332B",
"j  c #433C33",
"k  c #4B3B33",
"l  c #523E36",
"z  c #3F4139",
"x  c #434236",
"c  c #44443C",
"v  c #4B433A",
"b  c #4C4A3E",
"n  c #52433A",
"m  c #5A463B",
"M  c #534A3D",
"N  c #5A463B",
"B  c #65483F",
"V  c #4C4B43",
"C  c #4C4E49",
"Z  c #464742",
"A  c #544D43",
"S  c #594E45",
"D  c #54544C",
"F  c #5B544C",
"G  c #5B574A",
"H  c #5B5B53",
"J  c #5A5753",
"K  c #4E5047",
"L  c #664E44",
"P  c #704F49",
"I  c #6B5246",
"U  c #63534C",
"Y  c #6A534A",
"T  c #645A4E",
"R  c #665549",
"E  c #625C53",
"W  c #6A5D54",
"Q  c #605F59",
"!  c #745C54",
"~  c #7A5B53",
"^  c #785B59",
"/  c #7C554F",
"(  c #6B6054",
")  c #64645C",
"_  c #6D635C",
"`  c #69695D",
"'  c #73645B",
"]  c #736B5C",
"[  c #7B665C",
"{  c #7A715F",
"}  c #6D6661",
"|  c #6B6B64",
" . c #676864",
".. c #756B63",
"X. c #7B6B64",
"o. c #796963",
"O. c #7C7265",
"+. c #74746C",
"@. c #7D736B",
"#. c #78776B",
"$. c #747470",
"%. c #777871",
"&. c #7B7A73",
"*. c #7E7A75",
"=. c #6E7066",
"-. c #875E59",
";. c #82695E",
":. c #81665F",
">. c #846C63",
",. c #826D69",
"<. c #896964",
"1. c #916F6D",
"2. c #83736C",
"3. c #8B746D",
"4. c #847669",
"5. c #91756D",
"6. c #817770",
"7. c #8B7572",
"8. c #857B73",
"9. c #8C7B74",
"0. c #897E7A",
"q. c #927C74",
"w. c #937D7A",
"e. c #9C7D79",
"r. c #957571",
"t. c #7E827D",
"y. c #8C8274",
"u. c #84857C",
"i. c #8A847B",
"p. c #89877C",
"a. c #938177",
"s. c #95827B",
"d. c #9A857D",
"f. c #948A7C",
"g. c #988A7D",
"h. c #A2827C",
"j. c #A4897F",
"k. c #868683",
"l. c #878881",
"z. c #8B8B83",
"x. c #8C8B84",
"c. c #9B8581",
"v. c #948C84",
"b. c #9C8A83",
"n. c #9F8B8A",
"m. c #8F918A",
"M. c #9D9286",
"N. c #94948C",
"B. c #9A948C",
"V. c #97988E",
"C. c #96958A",
"Z. c #949492",
"A. c #9B9C94",
"S. c #9D9D99",
"D. c #A28C85",
"F. c #A38D8A",
"G. c #A68A87",
"H. c #A4938B",
"J. c #AB948D",
"K. c #A39A8E",
"L. c #AC988F",
"P. c #A19287",
"I. c #A69291",
"U. c #AA9493",
"Y. c #A49B93",
"T. c #AC9B93",
"R. c #AD9699",
"E. c #AD9C98",
"W. c #A39F99",
"Q. c #B19592",
"!. c #B29C95",
"~. c #B39C9B",
"^. c #B99E9E",
"/. c #A78F92",
"(. c #9EA196",
"). c #A3A49B",
"_. c #ADA39A",
"`. c #AAA196",
"'. c #B5A29C",
"]. c #B9A49E",
"[. c #B1A096",
"{. c #A3A3A2",
"}. c #A7A9A2",
"|. c #ACABA3",
" X c #ABACAB",
".X c #B6A4A1",
"XX c #BAA5A2",
"oX c #B3ABA3",
"OX c #BCA9A4",
"+X c #BEACA8",
"@X c #BEA6A8",
"#X c #AFB1AC",
"$X c #B3B2AB",
"%X c #BDB3AB",
"&X c #B7B9AF",
"*X c #B5B5B3",
"=X c #BBBBB3",
"-X c #BCBCBA",
";X c #BBB8B3",
":X c #C1ABA6",
">X c #C2ADAB",
",X c #C9AFAB",
"<X c #C4B3AC",
"1X c #C9B5AD",
"2X c #C3BAAD",
"3X c #C4B4B0",
"4X c #CBB6B2",
"5X c #C4BBB3",
"6X c #CBBAB3",
"7X c #CDBCB9",
"8X c #D1BEBB",
"9X c #BFC0BB",
"0X c #C4C3BC",
"qX c #CBC5BC",
"wX c #CBC9BE",
"eX c #C9C3B8",
"rX c #D7C3BF",
"tX c #C5C5C3",
"yX c #CCCAC2",
"uX c #CDCDCB",
"iX c #C7C8C1",
"pX c #D3CBC3",
"aX c #DACBC6",
"sX c #DCCECA",
"dX c #D4C9C3",
"fX c #D3D3CC",
"gX c #DCD5CD",
"hX c #DBD9CF",
"jX c #D3D3D1",
"kX c #DDDBD4",
"lX c #DDDDDB",
"zX c #DAD7D0",
"xX c #E1D2CD",
"cX c #E5D7D2",
"vX c #E2DBD4",
"bX c #EADEDA",
"nX c #E2DFDA",
"mX c #DFE0DC",
"MX c #E4E2DD",
"NX c #EBE4DD",
"BX c #E6E0D7",
"VX c #E5E5E2",
"CX c #ECE6E1",
"ZX c #EBEAE5",
"AX c #EDEDEB",
"SX c #F0EDE6",
"DX c #F3EEEA",
"FX c #EFF1EC",
"GX c #F3F2ED",
"HX c #FAF4EE",
"JX c #F4F4F2",
"KX c #F9F7F2",
"LX c #FAF9F6",
"PX c #FDFDFC",
"IX c #F7F8F4",
"UX c None",
/* pixels */
"UXUXUXUXUXUXUXUXUXUXUXUXUXUXUXUXUXUXUXUXUXUXUXUXUXUXUXUXUXUXUXUXUXUXUXUXUXUXUXUXUXUXUXUXUXUXUXUXUXUXUXUXUXUXUXUXUXUXUXUXUXUXUXUX",
"UXUXUXUXUXUXUXUXUXUXUXUXUXUXUXUXUXUXUXUXUXUXUXUXUXPXUXPXJXIXUXUXUXUXUXUXUXUXUXUXUXUXUXUXUXUXUXUXUXUXUXUXUXUXUXUXUXUXUXUXUXUXUXUX",
"UXUXUXUXUXUXUXUXUXUXUXUXUXUXUXUXUXUXUXUXUXUXUXUXIXLXPXJXAXJXPXPXJXFXIXPXUXUXUXUXUXUXUXUXUXUXUXUXUXUXUXUXUXUXUXUXUXUXUXUXUXUXUXUX",
"UXUXUXUXUXUXUXUXUXUXUXUXUXUXUXUXUXUXUXUXUXUXUXPXPXVXJXZXVXMXmXVXZXAXIXPXPXPXUXUXUXUXUXUXUXUXUXUXUXUXUXUXUXUXUXUXUXUXUXUXUXUXUXUX",
"UXUXUXUXUXUXUXUXUXUXUXUXUXUXUXUXUXUXUXUXPXPXUXIXVXmXAXZXAXVXkXlXZXZXVXZXAXPXPXUXPXPXUXUXUXUXUXUXUXUXUXUXUXUXUXUXUXUXUXUXUXUXUXUX",
"UXUXUXUXUXUXUXUXUXUXUXUXUXUXUXUXPXPXUXPXPXLXLXVXuXzXZXkXzXkXkXnXzXMXFXKXJXJXPXPXFXIXUXUXUXUXUXUXUXUXUXUXUXUXUXUXUXUXUXUXUXUXUXUX",
"UXUXUXUXUXUXUXUXUXUXUXUXUXUXUXUXPXPXPXJXZXZXVXfX0X=X|.$X0X5X$XyXfXuXMXFXFXKXPXGXZXKXUXUXUXUXUXUXUXUXUXUXUXUXUXUXUXUXUXUXUXUXUXUX",
"UXUXUXUXUXUXUXUXUXUXUXUXUXUXUXUXUXPXLXVXfXkXkXW.z.V.8.p.C.v.x.b.&XwX%XfXMXMXJXPXIXPXPXPXUXUXUXUXUXUXUXUXUXUXUXUXUXUXUXUXUXUXUXUX",
"UXUXUXUXUXUXUXUXUXUXUXUXUXUXUXUXPXPXMXuX}.0X$X..+.v.B.*._ 6.W.v.M.oXK.fXMXkXpXhXGXHXSXPXPXUXUXUXUXUXUXUXUXUXUXUXUXUXUXUXUXUXUXUX",
"UXUXUXUXUXUXUXUXUXUXUXUXUXUXPXPXKXnXuX9X|.*Xp.D J J A S X.6.p.W.v._.H.T.5XnXNX2X2XqXpXNXPXUXUXUXUXUXUXUXUXUXUXUXUXUXUXUXUXUXUXUX",
"UXUXUXUXUXUXUXUXUXUXUXUXUXUXIXPXMXuXjX-XA.Z.$.f f f U @.0.0.8.s.H.T.~.H.D.!.vXBX2XP.eXGXPXUXUXUXUXUXUXUXUXUXUXUXUXUXUXUXUXUXUXUX",
"UXUXUXUXUXUXUXUXUXUXUXUXUXLXGXMXuXiXuX#X$.$.#.U ,.7.c.F.c.w.7.>.o.X.s.L.~.H.E.pXvX5XeXHXUXUXUXUXUXUXUXUXUXUXUXUXUXUXUXUXUXUXUXUX",
"UXUXUXUXUXUXUXUXUXUXUXUXUXJXfXyX;X-X}.*.} } ) 0.n.n././.F.n.n.w.q.q.F.~.OX@X@X~.sXvXwXHXPXUXUXUXUXUXUXUXUXUXUXUXUXUXUXUXUXUXUXUX",
"UXUXUXUXUXUXUXUXUXUXUXUXUXGX9X|.-X*Xm.Q S @.@.I././.I.I./.I./.R.~.~.^.@X<X3X7XsXSXIXhX5XKXUXUXUXUXUXUXUXUXUXUXUXUXUXUXUXUXUXUXUX",
"UXUXUXUXUXUXUXUXUXUXUXUXUXGX&X&X-XS.k.| o.0.0.R.W.R.I./.U./.R.~..X~.R..X>X7XsXNXFXPXKX%XeXDXUXUXUXUXUXUXUXUXUXUXUXUXUXUXUXUXUXUX",
"UXUXUXUXUXUXUXUXUXUXUXUXUXJX$X$X}.x.=.J o.7.I.R./.R.I.R.R.~.@X@X.XXX^.@X>X8XbXIXLXGXPXvX2XGXUXUXUXUXUXUXUXUXUXUXUXUXUXUXUXUXUXUX",
"UXUXUXUXUXUXUXUXUXUXUXUXUXJX(.).A.z.| S o.w.R.I.I.I.U.E.R.R.:X,X3X>XXXXX@X,XaXSXHXDXPXMX`.vXLXUXUXUXUXUXUXUXUXUXUXUXUXUXUXUXUXUX",
"UXUXUXUXUXUXUXUXUXUXUXUXPXJX}.N.N.u.E A 8.w.b.U.I.I.U.U.R.R.Q.XX,X3X^.^.^.^.,X6XsXNXPXMXa.uXLXUXUXUXUXUXUXUXUXUXUXUXUXUXUXUXUXUX",
"UXUXUXUXUXUXUXUXUXUXUXUXPXVX#XV.m.p.E x @.s.s.E.E.U.U./.G./.J.R.XX@XXX~.R./.'.].1XvXPXNX4.wXPXUXUXUXUXUXUXUXUXUXUXUXUXUXUXUXUXUX",
"UXUXUXUXUXUXUXUXUXUXUXUXJXuX*XV.=.+.) x _ s.c.n.n.F.F.U./.D.G.G.G.U.Q.J.G.D.H.'.1XxXPXKXM.kXUXUXUXUXUXUXUXUXUXUXUXUXUXUXUXUXUXUX",
"UXUXUXUXUXUXUXUXUXUXUXUXFXwX|.m.) D M v _ b.D.M.s.9.7.9.7.7.r.1.1.1.5.5.5.r.r.9.v.J.pXKXfXBXPXUXUXUXUXUXUXUXUXUXUXUXUXUXUXUXUXUX",
"UXUXUXUXUXUXUXUXUXUXUXUXFXyXz.l.+.J b x W 3.D.b.o.R U L k w g N Y L B I P I n h N I g.BXZXSXKXUXUXUXUXUXUXUXUXUXUXUXUXUXUXUXUXUX",
"UXUXUXUXUXUXUXUXUXUXUXUXFX9X{ ` G V b x ( 3.D.9.[ X.^ Y n <   % 1 W d.d.l + , 1 k N ;.gXSXJXUXUXUXUXUXUXUXUXUXUXUXUXUXUXUXUXUXUX",
"UXUXUXUXUXUXUXUXUXUXUXUXFX=X] F M b c b 9.P.J.a.[ ! l j w , < q N 5.:X4Xo.  k j b T I qXGXFXUXUXUXUXUXUXUXUXUXUXUXUXUXUXUXUXUXUX",
"UXUXUXUXUXUXUXUXUXUXUXUXPXfXO.! T T D J s.G.L.d.I f g S S v n U ;.e..XdX^.Y Y W X.J.eXSXNXNXUXUXUXUXUXUXUXUXUXUXUXUXUXUXUXUXUXUX",
"UXUXUXUXUXUXUXUXUXUXUXUXUXZXf./ w.8.D A 2.D.!.[.M.s.3.[ ! ' ,.7.d.G.R.aXsXXXU.G.Q.4XNXPXMXMXUXUXUXUXUXUXUXUXUXUXUXUXUXUXUXUXUXUX",
"UXUXUXUXUXUXUXUXUXUXUXUXPXGXT.-.D.3.M b W D.[.].].OX].T.G.G./.c.d.G.U.7XbX>X!.:X6XxXSXHXNXMXPXUXUXUXUXUXUXUXUXUXUXUXUXUXUXUXUXUX",
"UXUXUXUXUXUXUXUXUXUXUXUXJXfXoXh.D.P ' E T P.L.Q.].>X3X3X:X^.G.,.w.U.R.@XbX8X1.Q.,XxXDXHXKXqXVXPXUXUXUXUXUXUXUXUXUXUXUXUXUXUXUXUX",
"UXUXUXUXUXUXUXUXUXUXUXUXLXwX&.P.Q.^ q.@.U H.L.L.[.OX>X>X:X^.<.^ R.G.L.J.>XsXc.1.Q.,XcXHXPX0Xp.KXLXUXUXUXUXUXUXUXUXUXUXUXUXUXUXUX",
"UXUXUXUXUXUXUXUXUXUXUXUXLXZXu.@.L.G.w...T d.L.L.[.].>X:X^.c.N ! [ h Y ! ! 3.<.-.h.L.1XNXPXfX1 u.VXLXUXUXUXUXUXUXUXUXUXUXUXUXUXUX",
"UXUXUXUXUXUXUXUXUXUXUXUXUXUXmXA.G.'.~.y.o.c.T.'.'.].OX].J.;.P ' h w h m Y ' s.:.-.h.!.aXPXMXv < C.ZXPXUXUXUXUXUXUXUXUXUXUXUXUXUX",
"UXUXUXUXUXUXUXUXUXUXUXUXUXUXUXJX=X<X.XH.a.s.!.'.[.[.!.Q.G.r.q.w.:.T n I 4.G.R.n.~ <.G.1XHXFX` % | ).FXPXUXUXUXUXUXUXUXUXUXUXUXUX",
"UXUXUXUXUXUXUXUXUXUXUXUXUXUXUXuXl.%XG.H.b.q.H.J.!.!.L.Q.J.G.b.7.X.' :.,.G.R.J.w.4.;.j.:XNXKXu.  b p.wXPXLXUXUXUXUXUXUXUXUXUXUXUX",
"UXUXUXUXUXUXUXUXUXUXUXUXUXUXVX&.  ..3.H.g.q.d.J.!.!.L.Q.J.d.,.W X.r.r.e.h.h.s.>.5.a.L.1XNXKXm.  a %.$XfXPXPXUXUXUXUXUXUXUXUXUXUX",
"UXUXUXUXUXUXUXUXUXUXUXUXUXUXtX9     6.Y.s.9.s.J.L.L.Q.[.J.3.X.! ^ -.<.e.J.Q.7.' >.f.:X6XcXHXC.p 7 b A.wXFXIXUXUXUXUXUXUXUXUXUXUX",
"UXUXUXUXUXUXUXUXUXUXUXUXUXUX*X  2   +.T.P.s.s.b.J.J._.OXd.,.4.2.7.c.^.4X8XxXxX[.5.P.6X6XcXSX%.` =.z =.$XhXGXUXUXUXUXUXUXUXUXUXUX",
"UXUXUXUXUXUXUXUXUXUXUXUXUXJXZ.  0   } E.Y.P.d.d.j.h.L.!.3.>.T.OX1X<X].].].6XbXcX>XP.OX1XvXkXC c #.+.b A.9XmXUXUXUXUXUXUXUXUXUXUX",
"UXUXUXUXUXUXUXUXUXUXUXUXUXjXC   =   ) _.`.H.a.a.g.g.d.d.[ a.].>X<X].J.q.e.1XcXcXsX%XL.1XNX*XV | K H D l.9XmXLXUXUXUXUXUXUXUXUXUX",
"UXUXUXUXUXUXUXUXUXUXUXUXUX-X  5 &   J W._.J.a.f.d.5.9.q.a.T.'.[.].OX'.G.OXsXrXrXNXgX_.5XNX8.V l.u.z D A.$XhXLXUXUXUXUXUXUXUXUXUX",
"UXUXUXUXUXUXUXUXUXUXUXUXAXS.  i O   V K.oXoXK.Y.J.d.g.a.T.%X<X`.L.'.:X].eXgXaXsXZXNX3XgXiX# V %.z.H H ).=X&XFXUXUXUXUXUXUXUXUXUX",
"UXUXUXUXUXUXUXUXUXUXUXUXVXZ.8 5 &   t k._._.Y._.Y.b.P.L.'.1X6X+XoX'..XOX6XrXvXNXZXZXpXnXA.  H z.m.J C (.0XqXJXUXUXUXUXUXUXUXUXUX",
"UXUXUXUXUXUXUXUXUXUXUXUXlXt.- 3 O   # o.I.).`.oXY.H.P.[.'.%X%X=X3X%XoX'.<XrXvXSXZXBXhXeXJ   D m.(.u.p (.yXVXUXUXUXUXUXUXUXUXUXUX",
"UXUXUXUXUXUXUXUXUXUXUXUXjXD 4 4 O o   J 0.B.Y.`.T.T.K.J.L._.oX%X2X2X.X_.[.eXvXSXCXkXyXC.  * x }.A.%.%.V.kXLXUXUXUXUXUXUXUXUXUXUX",
"UXUXUXUXUXUXUXUXUXUXUXUXuXz 8 8 O X   v ..0.B.Y._.Y.g.g.B.`.'.oXoXoX_.R.[.2XhXZXhXwX$X) o < J  X#X .*.M.VXUXUXUXUXUXUXUXUXUXUXUX",
"UXUXUXUXUXUXUXUXUXUXUXUXuXc 8 r & &   7 _ @.0.v.B.M.f.f.g.g.P.K.`._.K.M.K.oXwXgXqX%Xx., * c N.(.(.J C V.lXUXUXUXUXUXUXUXUXUXUXUX",
"UXUXUXUXUXUXUXUXUXUXUXUXuXc 3 r 2 &   O F X.6.&.#.f.M.M.g.f.f.f.f.f.y.O.] f.oX&XoXC.C     u.).z.| c p p.VXUXUXUXUXUXUXUXUXUXUXUX",
"UXUXUXUXUXUXUXUXUXUXUXUXtXu 8 3 5 = O   a ..X.....@.y.y.f.f.y.4.] T M w u T p.K.v.E O   C C.u.b D K   u.AXUXUXUXUXUXUXUXUXUXUXUX",
"UXUXUXUXUXUXUXUXUXUXUXUXiXe Z 8 4 2 =   0 _ @.@.o._ ] #.y.f.f.y.{ G 1 u b T #.#.D =   D l.$.C p c c   S.LXUXUXUXUXUXUXUXUXUXUXUX",
"UXUXUXUXUXUXUXUXUXUXUXUX-X@ C 8 2 2 = &   V 6.8.X.W W W W _ O.O.{ T n A G G G c     K u.+.z c b z D   *XUXUXUXUXUXUXUXUXUXUXUXUX",
"UXUXUXUXUXUXUXUXUXUXUXUX9X  C r 9 5 3 = . 2 J 0.0._ S A A A M S A M v x j y >   6 H %.Q z e z z D D Q jXUXUXUXUXUXUXUXUXUXUXUXUX",
"UXUXUXUXUXUXUXUXUXUXUXUXVX .  s 9 9 0 5 = o 9 W 8.8._ n g f j y f u q , $   o K | H K : e u z K D   9XUXUXUXUXUXUXUXUXUXUXUXUXUX",
"UXUXUXUXUXUXUXUXUXUXUXUXUX-X  p 6 6 5 5 0 = O d E X.@.o.F y < ; # # + . . t H ) K e < t p e c D   A.JXUXUXUXUXUXUXUXUXUXUXUXUXUX",
"UXUXUXUXUXUXUXUXUXUXUXUXUXZX$.  s = * 5 5 , = & d F _ o.o._ S j y q 7 t z z Z z e e e 7 < u Z   $.mXUXUXUXUXUXUXUXUXUXUXUXUXUXUX",
"UXUXUXUXUXUXUXUXUXUXUXUXUXUXtX    p = , 5 5 5 5 & t F _ X.@.X.' U Z a i 9 > $ , > * * * , V e a uXUXUXUXUXUXUXUXUXUXUXUXUXUXUXUX",
"UXUXUXUXUXUXUXUXUXUXUXUXUXUXUX-X6   , 9 6 5 5 5 6 8 8 c J _ _ V i 5 = $ $ $ * > * * 7 7 i p   -XUXUXUXUXUXUXUXUXUXUXUXUXUXUXUXUX",
"UXUXUXUXUXUXUXUXUXUXUXUXUXUXUXUXuXm.  % a , = 5 5 9 3 4 4 r i - - = * & @ * * * * * > t 6    XJXUXUXUXUXUXUXUXUXUXUXUXUXUXUXUXUX",
"UXUXUXUXUXUXUXUXUXUXUXUXUXUXUXUXUXPX X    r 5 2 : 6 5 = : * X = = * & $ . $ O $ $ * p <   #XPXUXUXUXUXUXUXUXUXUXUXUXUXUXUXUXUXUX",
"UXUXUXUXUXUXUXUXUXUXUXUXUXUXUXUXUXUXPX9XJ     5 0 9 7 & . X . X . . o . $ $ @ * 9 r     *XLXUXUXUXUXUXUXUXUXUXUXUXUXUXUXUXUXUXUX",
"UXUXUXUXUXUXUXUXUXUXUXUXUXUXUXUXUXUXUXUXlXZ.O     6 t 9 = o     o $ & $ # , r =     H tXUXUXUXUXUXUXUXUXUXUXUXUXUXUXUXUXUXUXUXUX",
"UXUXUXUXUXUXUXUXUXUXUXUXUXUXUXUXUXUXUXUXUXIXuXk.=       * r r i r 6 < t i       s {.lXUXUXUXUXUXUXUXUXUXUXUXUXUXUXUXUXUXUXUXUXUX",
"UXUXUXUXUXUXUXUXUXUXUXUXUXUXUXUXUXUXUXUXUXUXUXAXtX{.$.Z                     x. XuXUXUXUXUXUXUXUXUXUXUXUXUXUXUXUXUXUXUXUXUXUXUXUX",
"UXUXUXUXUXUXUXUXUXUXUXUXUXUXUXUXUXUXUXUXUXUXUXUXUXUXZXjX*X Xk.H s 0 8  .{.tXAXUXUXUXUXUXUXUXUXUXUXUXUXUXUXUXUXUXUXUXUXUXUXUXUXUX",
"UXUXUXUXUXUXUXUXUXUXUXUXUXUXUXUXUXUXUXUXUXUXUXUXUXUXUXUXUXUXZXlXjXtXuXlXUXUXUXUXUXUXUXUXUXUXUXUXUXUXUXUXUXUXUXUXUXUXUXUXUXUXUXUX",
"UXUXUXUXUXUXUXUXUXUXUXUXUXUXUXUXUXUXUXUXUXUXUXUXUXUXUXUXUXUXUXUXUXUXUXUXUXUXUXUXUXUXUXUXUXUXUXUXUXUXUXUXUXUXUXUXUXUXUXUXUXUXUXUX"
};
