/* XPM */
static char *_500581395126[] = {
/* columns rows colors chars-per-pixel */
"64 64 30 1 ",
"  c #C7CFD1",
". c #CCD4D6",
"X c #CFD7D9",
"o c #CFD9DA",
"O c #D0D6D6",
"+ c #D2D6D9",
"@ c #D5DBDD",
"# c #D9DEDE",
"$ c #D6DFE0",
"% c #D9DEE1",
"& c #D6E0E1",
"* c #DCE2E4",
"= c #DFE8E7",
"- c #DEE6E8",
"; c #DEE8E9",
": c #E1E5E6",
"> c #E4E8E7",
", c #E2E6E9",
"< c #E5EAEB",
"1 c #EAEDEE",
"2 c #EEF0EF",
"3 c #E7EFF1",
"4 c #ECEFF1",
"5 c #E7F3F3",
"6 c #EDF1F3",
"7 c #F2F4F5",
"8 c #F6F8F7",
"9 c #F4F6F9",
"0 c #F6F9FA",
"q c #F9FAFC",
/* pixels */
"<1276369669747666>*6252<7q291271:::%>::17722977727,:31,,<3113774",
"277793366697476133=2<77>28771494,,%%:%#%>27774492,,,%%,,,<111466",
"788894347777676132>1<68<49744177,:%%%#+#%>1442297,22$+-$,<1,,144",
"888796446647666161>3129977714,97:%%%%###+%:>42247177% $X%<<,,114",
"787772666766416465114179q7724171%%$$%%:%@:::,7744777:+.X%--<,114",
"2772624680661,61<62>1172q792724:,%%$#%::#::#,1274qq41% o%--<,,14",
"2887624670351<94161:14q29997492:-%%*+%:%:,,:::,29q944%XX$$-,,,<4",
"2787964665<1<<7166>*94779972194:*$*%@%,:11,>1,:779724,$X$$%,<,,4",
"6706691<16611<6169<:11<69744674,,33,<&*17777227769972<*@X$<;<--3",
"6606681<38521<6167<<11<27741471,-,*-<:>1<2277799766662=O$%<-<<,<",
"3366706266511161951461267744461,%$o$:<124427997777226651--<-<3<3",
">>367069262251629116665977744441%$o$:,1142422744<16666663-<333<3",
"2322966756261<677449774777744441%%$$$$::111>142721:<15667<133,,4",
"1256668526666<126447974477724444%$$$+$,:,:,,,,12721144697<474,,4",
"*326660666596>114646961499977444,$$$+*1:,>>1><,,*:6q074194643<,3",
"@266968166296<11161177277777774,4%$$$:1:,,>142,:#@@:474496731634",
"@#1622741279156568446796997941472>:%>::>,,:,::,:>@@**1777711441<",
"@#<21571566819786646669647997499:11:#:>>1>>1,1,:1**,,,1,7qq441<,",
"@>1<4772676919896712216147744499>>1>#%>%:,>,,1:%,%:,,<,,19964443",
"#>>:477766691666691227719441479,7>12%#::%:,::::%%%%1434<<14994<4",
"#:*%<67766201111794477979771497,q144###%%:::,%,%:*%,14446<,706:<",
"::#*<121625711<<79422697747447742771##:%%:::%,,,::%%*,,<11<1991,",
"<:%:,472516011<177224777744447974791##%%%#::,%,*%%++%*,1<2<,2971",
"2**,,422226q1<,7772472874442479997721##%%#%>,**,%%++*,,4<1114112",
"77<#*212265q,1,47741449744777799q7771#+*%%--,<%++$%$--%3<1733330",
"211><1<11660<1<24414779777744799q9211%#@%$%-,-%%$%%%-%$-1<005770",
"1><>12<71110<116111747q4774477798q71<<:@%$$%%%%*----%-%%3-9q9499",
"7<::17777719,116414777q4974447777991><<:X$%%+*%-,%--%-,,3%393399",
"776><61727791144227949q4974444991771<11<++%%%,%13--%%,,<3$<63369",
"<8q<*<<172774464277949q77747777771<<111<%+%34,,94<<%%,-<%$%64,66",
"#17<*:>622992774497449974477777721<11<<11%%4444q63<%%,,3<--66366",
":>1,:>>74777727749747494774799741111<>177,4,<44746,%,<,646469369",
"%,4,,,44477747778822721>7478q874>:1>>321271:%,477<3-%-<94$,73709",
",,4,,%,44447777728827222,1797474<:**==<274,::>241<3-%<369-706774",
",,4,,+%42147974728822777127747761<##*#*226214261%,3:%<4694006776",
",%,,,%+142477447772278217977797:12*#*##>98899761<364,<699573597q",
",%,,%:%,474444777877884>142476,+*2:#*#*>7777991:4<34<,4980914760",
"%%%%:1,1,744247727722442:1994<%.@>#&>=111421111-<<34<-4980097956",
"%%%%,,,,,794444772222>1727974,-$#>#&*=761777741-4449419q99778666",
"%%,%,%+%14994117222872>>q771,,,%>>@###767qqqqq4:4744339906795526",
",%,%%%%+174111:727278q9>64313+%37<##.%36947qq244,334664796668977",
",,,,%%%%427111,478977799993,<%%-11*$X-33979q941<,435967999577795",
",,,,-%%-127772292788979q993%,%,%<4<,,46667qq733<,<47669q09879777",
",%,,%%-,:>7644222279899996-%3<3+,35766341489643<,,5966qq00909059",
"%%%,-,,%::6644467446997769<%363$*60997,,1466663-,<6967q9qqq90870",
"%,,,-,3%:19976127798qq9744<%333-$4q6999,,,,3<65-369099qqq89q0780",
"%,<<,<3,:<6664,1279qqq9433-$--3<-;536906<,,,-3533999q99q8890998q",
"%%,<33<,:16474,764,1694:3-*$-%355*33649034<<-<334999q9789q08999q",
",,,,<1<<*,7147<1344<<63-3--%$*35-;$-90696664346644590005009q77qq",
"43,,<411,14167<<4443463----%&33-@;$$399999644333997999099q0q9778",
"4<,4441,1,1,16,:<33,<3<$$$%--;;*&;*@-36936663<349909990000qq9778",
",,,4641,111166<:--%----$$$*-*---;;*$*%-6364744495009990q9000777q",
"44111146161276213---;3;***-----*;-$*$$*3636666990797990q99997779",
"444411661956726533,;;;;--$$--3-$&-;&$*-3663377699095999989972777",
",474341469166<16<<,-;;-*-$&*-;-$-&*&$$--43<<47747999599999977774",
"4444,,1490666111-,333;--3*--$--*;$$;*$$-33,369975999099999998q74",
"711441112666611><;53<<-*-3;*$***;$%**-*&%36379q99997797799979779",
"4111<>><166676563;<<;3*%---%--3,3;----;;-36499996997779999977729",
"1211,:,<777963271;1>;,-*-----3,-;-;<--;;%477977939qq997799977227",
"1411<<1477772157<<3>-<,3,3,-33<,;--;--;;%-17977747qq999899977747",
"2421112772653<3633<:*1263<<<<4<1<,,<-,3,1%,799446799887877872729",
"2111114777122>3263<**369434111<<<,,<-,3,,%,7947477q9788787722227",
"2>>41>1671152<>>622**1160711<,,,3,,3<,,-%%,944772999777888822227",
":,>41:,21<=262<=>602**-1q6<<1<1<3,,3<3,%<+%,797249q8777888877729"
};
