/* XPM */
static char *_500573483971[] = {
/* columns rows colors chars-per-pixel */
"64 64 247 2 ",
"   c #0D9393",
".  c #26959A",
"X  c #0D9BAB",
"o  c #189EB2",
"O  c #249FAB",
"+  c #13A4AC",
"@  c #04A5B4",
"#  c #17A6B7",
"$  c #2DA5A9",
"%  c #3DADAD",
"&  c #26A8B8",
"*  c #2DABBB",
"=  c #39ADB6",
"-  c #32ACBD",
";  c #2BB1BC",
":  c #3AB3B7",
">  c #33B1BD",
",  c #3CB3BD",
"<  c #43AAAE",
"1  c #43B2B4",
"2  c #44B5BC",
"3  c #4AB7BA",
"4  c #4DBABC",
"5  c #53BDBC",
"6  c #5BC0BE",
"7  c #1DACCE",
"8  c #12ABD2",
"9  c #26A8C7",
"0  c #2DACC3",
"q  c #24AACB",
"w  c #33ADC3",
"e  c #35AECB",
"r  c #2AB1C8",
"t  c #35B2C2",
"y  c #3CB4C4",
"u  c #37B4CA",
"i  c #3CB3CB",
"p  c #29ADD4",
"a  c #33AFD3",
"s  c #2AB1D5",
"d  c #2BB1DB",
"f  c #34B4D4",
"g  c #3CB5D3",
"h  c #3AB9D6",
"j  c #34B4DC",
"k  c #3BB6DC",
"l  c #36B9D9",
"z  c #3CBADA",
"x  c #0EAEE3",
"c  c #1DB3E5",
"v  c #18B5E8",
"b  c #26AFE1",
"n  c #26B4E4",
"m  c #2BB4E4",
"M  c #2CBAE7",
"N  c #27BBE9",
"B  c #33B6E4",
"V  c #3AB7E2",
"C  c #35BBE6",
"Z  c #3BBAE4",
"A  c #35BCE9",
"S  c #3CBDE9",
"D  c #42B6C4",
"F  c #45BAC4",
"G  c #4CBBC3",
"H  c #42B5CB",
"J  c #49B4C9",
"K  c #45BBCB",
"L  c #4CBBCC",
"P  c #54BEC3",
"I  c #59BFC3",
"U  c #52BECD",
"Y  c #5DBFCC",
"T  c #43B6D4",
"R  c #44BAD4",
"E  c #4CBDD3",
"W  c #43BCDC",
"Q  c #4ABDDC",
"!  c #53BED3",
"~  c #52BFD9",
"^  c #68BFCD",
"/  c #43BCE4",
"(  c #4BBEE3",
")  c #43BEE9",
"_  c #48BFE9",
"`  c #51BFE3",
"'  c #2FC5DC",
"]  c #3BC8DD",
"[  c #2CC4E5",
"{  c #37C7E6",
"}  c #3CC2EB",
"|  c #2DD4E6",
" . c #34D5E6",
".. c #38D6E7",
"X. c #3CDAE5",
"o. c #4CC1CA",
"O. c #56C0C4",
"+. c #5CC2C5",
"@. c #53C2CB",
"#. c #5DC4CC",
"$. c #5EC8CD",
"%. c #4EC1DC",
"&. c #44CCDC",
"*. c #4CC9D9",
"=. c #54C2D3",
"-. c #5CC4D3",
";. c #5ACAD7",
":. c #53C2DB",
">. c #5BC5DC",
",. c #5DC9DC",
"<. c #4BD4D7",
"1. c #54D4DC",
"2. c #5BD5DB",
"3. c #59D9D8",
"4. c #63C5C5",
"5. c #63C6CB",
"6. c #68C6C8",
"7. c #65C8CB",
"8. c #6BCACC",
"9. c #73CDCE",
"0. c #62C6D3",
"q. c #6AC6D7",
"w. c #64C9D3",
"e. c #6CCCD3",
"r. c #62C6DB",
"t. c #64C9DD",
"y. c #6BCCDC",
"u. c #73CED3",
"i. c #79CED4",
"p. c #71CDDB",
"a. c #7ACFDE",
"s. c #64D5DD",
"d. c #6BD7DE",
"f. c #64DADC",
"g. c #6BDBDE",
"h. c #75D0D4",
"j. c #7BD2D4",
"k. c #74D0DA",
"l. c #7CD3DB",
"z. c #72DCDE",
"x. c #7ADDDF",
"c. c #7DE0DF",
"v. c #4CC1E5",
"b. c #44CBE4",
"n. c #4BCBE3",
"m. c #44C3EB",
"M. c #45C6E9",
"N. c #4BC4EB",
"B. c #4BC9EC",
"V. c #53C2E3",
"C. c #5BC4E3",
"Z. c #55CEE4",
"A. c #5BCFE5",
"S. c #54C5EB",
"D. c #5BC6EA",
"F. c #54CBEC",
"G. c #5BCBED",
"H. c #46D3E7",
"J. c #45DBE6",
"K. c #4CDCE6",
"L. c #45D6EB",
"P. c #4CD6ED",
"I. c #4DDAEA",
"U. c #55D2E3",
"Y. c #5CD3E4",
"T. c #5DD8E6",
"R. c #53D4EC",
"E. c #5CD2EB",
"W. c #54DBEA",
"Q. c #5DDAEC",
"!. c #48C9F1",
"~. c #53C7F1",
"^. c #52CDF2",
"/. c #5BCDF1",
"(. c #48D2F2",
"). c #59D6F2",
"_. c #5CD4F2",
"`. c #61C7E1",
"'. c #64C6E7",
"]. c #64C9E4",
"[. c #6CCCE3",
"{. c #63CCED",
"}. c #6ACDED",
"|. c #73CEE4",
" X c #74CFE8",
".X c #63D4E4",
"XX c #6BD6E3",
"oX c #6CDAE3",
"OX c #63D2EB",
"+X c #6BD4EC",
"@X c #64DCE9",
"#X c #6BDBEC",
"$X c #73D4E4",
"%X c #7BD1E4",
"&X c #73DCE4",
"*X c #7BDDE4",
"=X c #72D5EC",
"-X c #7BD3EB",
";X c #74DAEB",
":X c #7BDBEB",
">X c #63CEF0",
",X c #6ACEF1",
"<X c #64D3F2",
"1X c #6BD3F1",
"2X c #64DAF1",
"3X c #6CDAF2",
"4X c #73D4F1",
"5X c #7AD6F1",
"6X c #74DCF2",
"7X c #7CDAF2",
"8X c #58E1E8",
"9X c #68E2EB",
"0X c #75E1E6",
"qX c #7BE1E3",
"wX c #74E3EB",
"eX c #7CE2EB",
"rX c #73E0F0",
"tX c #7DE1F2",
"yX c #82D4D6",
"uX c #89D7D7",
"iX c #83D5DB",
"pX c #89D6D9",
"aX c #8DD9DA",
"sX c #96DCDD",
"dX c #85D7E6",
"fX c #81DEE5",
"gX c #82DDEB",
"hX c #94DBED",
"jX c #81D6F1",
"kX c #83DBF3",
"lX c #8ADBF2",
"zX c #84E2E5",
"xX c #8BE4E6",
"cX c #84E3EA",
"vX c #8BE4EB",
"bX c #84E9ED",
"nX c #8DE8EC",
"mX c #91E6EB",
"MX c #9AE6EC",
"NX c #94E9EC",
"BX c #9BEBED",
"VX c #85E1F4",
"CX c #8BE2F5",
"ZX c #8BEBF0",
"AX c #97E6F3",
"SX c #A6EAED",
"DX c #A5EAF2",
/* pixels */
"J.| X.X.X.8X8X9XwXeXZXbXZXZXBXZXBXBXbXBXDXnXeXnXnXzXbXxXnXSXnXnXNXnXxXnXnXSXNXxXf.g.g.qX<.3.qXqXg.f.g.bXz.f.3.g.f.3.f.z.c.f.3.z.",
"J.X.X.J.8X8XJ.8XK.wXZXwXwXbXBXBXNXBXZXnXDXnXqXzX9X0XeXqXzXNXnXxXBXSXNXmXNXNXxXxXqX0XeX0X3.g.g.qX0Xf.3.f.zXz.g.f.f.f.c.c.uX3.3.zX",
"8XJ.J.8X9XJ...9X8X9XeX9X9XwXBXDXNXNXBXNXNXbXnXeX9X0XbXzXvXbXnXxXBXBXmXnXNXBXNXsXxXzXzXqX9Xc.3.f.c.0X3.3.xXxXfX3.z.c.z.zXzX3.z.g.",
"8XX.K.X.@XX.K.J.K.K.J.9X9XwXZXZXnXCXNXBXnXnXnXbXnX0X0XnXbXzXvXvXmXmXxXxXxXnXxXnXzXeXg.nXf.0Xf.f.bXf.3.c.zXxXc.<.g.z.z.z.zXj.f.f.",
"K.| ..J.I...K.K. ...I.8XK.9XwXZXBXAXNXcXCXvXcXmXnXqX0X&XeX0XzXvXmXmXmXzXxXzXxXxX&Xg.1.oX0X1.3.oXzXz.x.*Xg.qXfXd.d.d.z.2.uXc.3.z.",
" .X. . .K.I...W...| J.W.8X9XrXbXCXmXnXwXvXcXcXvXzXNXzX.XeXcXgXvXMXvXmXvXzXNXBXxXoX&X&X3.&XqXoX2.c.c.2.*Xx.z.z.f.d.s.x.z.z.f.3.z.",
"K.J. ...I.Q.I...| ..L.Q.9XQ.8XrXcXeXVXeXnXeXcXvXbX&XeXeX*XvXcXvXMXvXzXcX*XeXMXzXoX&XxXxXg.g.d.d.xXz.f.*Xz.g.s.d.d.f.x.d.<.f.<.j.",
"W.I.| Q.2XJ.2X..| ..L.9XtX9XQ.W.T.T.@XcXcX:XcXvXvXT.oXeX:XxXvXcXMXmXcX*X*X*XzX&X&Xs.vXgXxX&Xg.MXSXg.zXqXXXs.z.s.f.s.f.g.;.g.f.g.",
"(.X.P.tX3XW.(.....(.W.rXtX9X2X@X@XT.T.T.#XcXcXCXcX@X&X@X;XmXvXcXlXcXvX:X:X*X&X&XoXfX&XY..XoXoXfX*Xs.fXfXs.2.oXoX2.d.XXs.x.$Xs.*.",
"P.L.2XtX2X2XP. .Q.6X9XVXtX2X3XwX#XK.b.H.U.T.cX:X#X:XcXoX:XcX:X:X*XoXgXfX&X;X;XeX&XgXY.oX1.<.&XfXoXXX&X&XoXXXs.d.2.s.s.s.*Xd.d.s.",
"L.P.P.P.Q.P.(.P.3XVX3XVX#XQ.;X6X#X{ [ U.R. .oX#XoXvXxX:X:XcX:X*XXX1..XoXgX*X&X:X&XgXoX1.&.' .X*XXX1.XXXX$Xs.n.1.s.s.s.XXd.&Xs.z.",
"P.P.W.2X2X2XP.).rXtXrX6XE.P.Q.wX9X{ H.b..X[ .X;X;XCXlX;X;XcX:XgX+XOX&X#XgX*X:XoXXX*X&X.XZ.*.] &.&.&.1.s.XXXX,.*.s.$XXX2.d.$Xs.*.",
"(.2X2X2XrXAX6XVXVXVXCX3X).W.2X6XQ...E.T.{ b.E.CX=X:XAXXX;XgX:X*XT..X@XXX.XOXgX$X:XY.Z.U.XXXX&.&.&.*.U.U..XXXXX2.XX$X&X.X,.oXfX,.",
").2X2XrXtX6X6XrXCXCXVX6X_._._.#X6XE.+XCXR.E.mXgX:X:XmXE.#X:X;X+XXX+X.X.XY.XX.XXX:XZ.Z.XXA..X&.&.' ] Z.A..XOXXX#XoX#X$XU.Z.Y.gXXX",
").3X2X6X3XP._.;XVXVXVX6X2X).2X2X;X:XZ.;XT.OXDX-XOXgX=X+X;XXX;X=X;XXX+XOXY.{.Y.OX$XA.n.1.n.] Z.U.] &..XOXT.XX+X:X+X;X+XXXZ.*.$X&X",
"_.2X_.2X3X3X6XVXVXVXkX6X6X3XOX;XR.G.R.F.Z.:X;X.XOX:X-X;X=XA.+XgX:X+XXX=X;X.XXXA.Z.Z.A.Z.&.] A.].n.OX;X.XOX+X:X:X:X;X+X:X+X=XXXXX",
").).3XCX7XCXkXCXCXkX7X7X7X6X1X6XR.F.F.{ lXOX+XgXgX=X;XOXU.F.gX:X+X+X}.;X=X+X=X+XA.n.Z.v.n.A.E.Z.S.OXOX#X+X+X6XkXgX;Xn.B.U.G..XY.",
"(.).3X6X6XCXCXCXCX6X3X3X7X<X3X1XF.B.} [ gXA.M.+X+XOX-XG.A.+XlX=X=X.X+X=X=X;X=X+X{.Z.{.Z.Z.Y.OXU.Z.OXE.OX6X+X;X4X4XE.{ F.OXn.b.F.",
"<X<X<X<X6XlXCXCX6X<X<X<X3X7X<X/.{ b.B.[ S.Z.M.E.E.E.+XG.+X:X:X5X=X{.OX6X-X:X:X=XOX{.|.XXD.E.G.F.B.1X1XOXG.;X;XF.E.B.} OXE.Z.S.F.",
"3X<X<X3X3X<X7X6X<X<X_.<X<X<X1X_.B.G.G.[ } M.{ S.F.{.jXOX{.G.1X+X<XOXG.5XOX1X7X4X+XgX;X{.+X+X1XOXB.F.1X+XG.6X1X<X<XM.b.G.G.B.F.{ ",
"^.<X<X).^.^.<X<X<X_.^.<X1X<X1XOXB.B.M.N [ G.D.b.F.OX+XOX^.~.4X4X5X1X<X<XG.E.1X5XgX-X7X-XkX>X1X1X{ F.5X=X+X4XE.{.{.B.<XG.B.{ ^.B.",
"!.).^.!.!.^._.<X<X_.<X4X7XkXOXm.B.m.[ M M C m.} F.{.<XG./.,X<XjXAX4X5X<X1X1X<X5X5X7X5X4XhX4X4X4XG.B.kXG.<Xm.m.G.M.<XOXE.B.} B.!.",
"_.<X_.!.} ^.^.<X1X1X1XkXlXkX_.m.B.} [ M c c A Z S /._.~.m.>X1X1X5X4X4X<X<X<X1X5XjX5X6X5XjXlXAXjXkXjX,XG.G.B.M F.B.G.OXG.G.B.m.m.",
"/.1X^.^.^.!.!.<X5XkX5X5X7X5XG.} } M M n n { Z C c B.G./.} /.1X,X1X1X1X{.>X1X4X1X5X,X+XkX4X,XDXlXjXAX,X5XG.B.} A M.G.{.G.G.G./.~.",
"/.<X^.!.<X^.!./.1X5X1X1XjX5X1X~.M.A } m A A A m.n B.5X4XN !.~./.~.<X1X>X>X5X,X,X/.!.G.4X{.5XlX4XB.>X/.N.N.^.m.M A B.D.G.G.F.~.!.",
"^.^.!.} !.^.>X>X/.{.<X{.jXlX4XF.M.m.m.A } M.Z M.A m.>X<XN ) /././.>X,X,X<X1X>X/.~.} ~./.4X1XjXjXB.~.A c N A S A A S m.F.D.~.N.N.",
"!.!.!.} } !./.~.m.m.F.m.G.4X5X}.S.S.S.m.v.{.) S S !.F.m.A N >X4X4X5X>X1XhX4X,X>X/.D.~.,X,X>X5XlXF.S M _ c v n M M M S N.S.>X/.~.",
"/.S ) !.N A A S B.m.B.m.N.}.jX5X{.S.{.S.S.G.S.) m.~.N.) A S >X/.>X,X1X}.jX4X}.G.>X/._ ,X,X4X4X5XS.A m _ b b B m n n n ) S.D.}./.",
"1X~.!.!.v N N A m.m.} m.N.G.jXlX{.}.'.D.D.v.N.D.~.B./.D.S _ ` ~.>X}.,XjX,X,X}.) S ) !.~.~./.jXlX~.S m B m M S m m b b ) D.4X,X{.",
"1X~._ _ v N A S } A } S G.}.lXjX}.}.}.{.D.Z ) D._ D.~.N._ _ >X` D./.}.jX5X}.}.N.x ) _ _ _ D.,X4XS.) C n B _ ) m n b m ) ~.4X5X,X",
"4X/._ ) x N N A m.S.G.S.S.+X=X=XD.'.V.D.'._ }._ _ /.S.D.S ` ,X/.D./.D.,X,X,X}.A b m _ S _ _ S.>XD._ C c m ~._ m b m B _ ` ,X4X'.",
",X~._ !.N N v B D.}.{.Z.S.v.'.}.V.S.m.V.D.( / B A m _ ,X>X/._ _ N.}.}.D.S.'._ x n b S S ) _ D.}.,XS.B n _ ` _ B m B _ /.,X,X,XD.",
",X~.` _ C m m m.D.D.V.m.m.v. X}.V ( ( ` ` ` V b m m _ ` 5X}.` D.D.D.D.N.V.'.B x b B Z m.A S G.S.}.'.S Z ,X` ` V B V _ D.{.{.,X` ",
",X_ _ S B A / S.V.S.v.v.v.'.}.W / ( ( ` ` ( / V m m S / '.}.'.D.N.) Z N.{.}.D.b b Z ) Z A / {.N.` S./ m ` ( ` S j V _ D.{.,X,X` ",
">XS S ) Z m.S.{.{.V.C.n.D.].V.S.( ( ` ` D.` / j V B b / S.V.'.D.V.V.v.V. X` ` / V Z ( S._ B S.V./ V m / W ` ` ` ` a ` D.` lX5X` ",
"` ) / / S.S.V.C.'.V.V.].-XV.v.].` / C.|.` ( ( V / V d j / / ` / / D.'.}.-X( x d ( ( ` S./ j / ( ` V j a / ~ '.'.k V / '.'.}.>X` ",
"D._ _ / Z.v.v.V.C.V.%.D.XXv.].[.W Q [.%X` ` ~ ` ( / j p d k ( '.[.}. X-X XC.d Q [.` ( p p B T ( ` ( W j ` |.'.r.d ( v.V.5X}.` D.",
"_ / v./ V Z v.D.:.%.:.W :.v.C.C.C.` }.[.[.`.` [. X` / d k W C.[.-X|. X-X[.`.` -X|.` ~ d j a b k ` ` [.C.}.|.[. XQ W :.D. X X'.'.",
"v.l / k d d l %.%.%.%.z l %.%.%.`.C.>.`.`.` '.[.dX` W T T k `.`.r.'.%X%X[.`.t.|.r.'.` p a T 8 Q `.[.|.|.|.[.|. XC.:.`.].'.'.'.`.",
"V.v.%.k %.W Z %.z z z l z %.%.W C.~ `.[.[.|.[.[.[.~ p a a p ~ %X|.>.r.[.[.q.%X|.[.` W p d a p T >.~ ` [.|.|.[.r.[.[.%X%X].[.`.Q ",
"v.%.W z W V.:.Q l f f 8 h h R h R ].`.[.hXdX|.[.~ ~ g T g g T ].t.>.~ r.t.>.%XdXr.f f p q a a g r.[.`.~ Q |.|.t.%XdX%X X`.`.>.Q ",
"z s h f f z z z :.T 7 q s q s 7 g [.p.$X%Xy.t.>.W Q T Q T g T t.r.~ %Xt.>.dXa.r.T T e q 9 a 9 E r.~ ~ T T ~ |.|.|. X|.>.>.~ ~ ~ ",
"z z s g ~ Z.%.h %.,.s r 7 r %.8 f :.$Xt.t.>.>.>.E E E E T 9 T y.y.E r.r.R hXsX:.E g q q 9 a e ! ~ ~ E H i T ~ t.y.|.p.>.Q E E T ",
",.;.] %.>.,.:.R Q ,.R g r g -.u =.y.,.>.t.,.t.>.~ E Q E R 9 9 T t.>.u :.T y.t.E :.e 9 q ~ ! J L E J H e e H ~ q.t.t.r.~ R H T T ",
",.%.h :.].t.,.:.%.%.=.=.E >.y.=.t.k.y.,.y.t.p.t.>.! ! E E E ~ ! r.q.i q.-.E R R -.e 9 H q.i ! J H E H & e H L p.a.%Xy.R E R R L ",
",.*.=.:.y.XX,.>.=.E E E =.-.y.t.-.y.t.>.k.p.y.w.-.! L H H ! 0.r.! E H q.q.g H u u e i -.E ! U w J 0.J 9 i H E a.iXp.0.E =.E L H ",
":.t.y.y.p.y.-.%.E E g R =.E E -.-.y.K o.=.p.y.-.! 0.Y H i 0 0.-.Y ! H ! =.r w e u K E U J i H H J J J * 0 w L y.r.E H -.-.H e H ",
"=.;.y.y.*Xy.;.-.%.o.@.E @.=.w.t.=.K K o.*.@.t.u.r.-.Y H w 9 U 0.! L E K & 0 0 0 0 H -.-.0.H w.D J 0 O * - - H L H L ! i L L 0 J ",
";.;.iXdX%Xp.;.-.=.=.E @.-.-.q.-.y.w.-.@.;.e.w.w.q.w.L D D i ! p.u.L -.! ; t i & 9 L U -.@.q.i.K L & & o & w y i r F =.0 ; =.t w ",
"t.y.l.dXfXw.*.@.=.@.L E =.-.w.-.;.w.o.u o.w.w.K w.#.w L 0.-.q.e.iX0.-.@.y t y D y D D J U U K J * o O o & * w w D t # L H @ ^ pX",
"d.p.k.iXiXt.$.;.=.=.L #.-.w.e.w.o.o.y ; o.o.;.> #.5.; -.i.e.w.#.w.0.@.G y * - J F U 5.w.w.U F - & o o o o * - # - u # * o.r Y yX",
"w.w.k.iXx.e.-.=.@.@.@.=.#.-.$.-.$.@.y r w.@.o.F u.u.L @.0.0.5.Y U 5.5.#., * , ; #.i.0.w.#.G , , = * L H @ o.y # # & 2 @ , - w y ",
"-.w.k.x.j.e.w.-.@.@.o.u D -.w.e.h.$.@.#.e.o.@.o.p.i.w.w.w.q.Y #.Y +.e.u.G = - o.0.w.#.w.0.w.#.@.J > I #.@ D y # + + = & 2 P * J ",
";.e.k.k.k.e.@.o.@.o.; & @.#.e.h.l.h.h.7.o.o.u.e.i.h.i.l.e.e.e.#.+.Y 7.#.I G * @.#.7.yXe.i.l.u.G & * - F G , D G * X + 2 P 5.* , ",
"h.p.w.p.p.p.$.7.-.O.& & L 5.u.h.h.k.j.u.$.$.j.j.l.pXiXyXu.e.5.Y I Y 5.5.7.#.2 u.i.i.pXi.7.8.7.F : * 2 F #.7.#.F * , * @ ; : > & ",
"e.h.7.w.7.w.w.$.G w.O.@.F #.e.u.h.u.u.h.9.9.j.sXyXyXiXi.9.#.#.5.I +.+.5.yX7.+.w.aXyXu.e.7.G G F G 2 : 2 G w.5.G , = 3 ; & & ; = ",
"@.$.e.k.$.$.$.7.@.#.+.& 4 $.5.e.7.$.8.j.j.j.aXsXyXj.h.u.8.7.9.8.6.5.I 4.8.5.5.6.j.uX9.8.4.: O.2 G P 2 2 O.$.$., , I I G 1 P , & ",
"8.e.h.h.u.$.4.o.F O.O.; , $.5.5.$.$.u.j.yXsXsXaXaXpXpXsXj.9.9.9.9.4.4.+.6.6.5.i.yXyXj.j.8.6 4 2 3 4 G 2 2 $.+.+.5., F 5.G = 3 $ ",
"k.h.h.j.j.x.yX8.o.O., ; 4 5.#.O.O.8.9.h.j.aXaXuXsXMXaXyXj.h.6.6 9.9.I 4.+.9.i.6.9.yXuX9.+.O.4 2 G 2 P O.4 O.+.iX6.P P I 5 4 2 O ",
"u.u.9.9.yXyXc.9.$.6 6 $.5.7.#.O.O.$.9.h.yXuXj.j.yXuXyXuXyX8.9.4.^ 5 5 4 5 6.j.6.9.uX9.9.+.6 +.O.5 I 4.7.O.4 6 7.4.9.8.8.8.1 4 . ",
"u.u.u.h.j.h.j.9.9.8.7.h.7.4.5.+.6 F $.8.9.j.j.yXyXj.j.yXyX9.6.4.6 1 6 6 5 4.9.4.9.j.9.j.j.8.8.4.+.4.6.6.6 2 6 6 6.8.8.4.5 $ < $ ",
"8.e.9.h.h.9.j.j.j.j.8.9.5.$.+.+.: 6 4.4.4.9.j.uXuXyXj.yXz.8.6 8.6 6 6 6 5 6.6 6 9.j.9.uXyX8.+.6 5.5 < 6.6 3 6 = 6 j.7.6 = 5 1   ",
"$.8.7.7.9.h.j.j.h.9.8.7.+.+.O.+.6 : 6 6 8.9.9.9.j.j.9.9.6 6 6 6 6 6 5 < 5 6 6.4.4.8.9.9.4.4.4.4.4.7.+.6 % : 6 1 4 j.7.4 O 6 5   ",
"$.4.4.7.8.8.8.9.8.7.4.$.$.$.+.+.: : 6 8.8.6 4.4.9.9.4.6 6 6 1 6 % 6 6 1 5 5 4.4.6 4.6.8.6.+.6.8.6.4.6 1 % % 6 1 6 8.4.6 6 <     "
};
