/* XPM */
static char *_500575177368[] = {
/* columns rows colors chars-per-pixel */
"64 64 60 1 ",
"  c #3D76BF",
". c #3F78C1",
"X c #4177C1",
"o c #447BC3",
"O c #4B7EC4",
"+ c #477EC8",
"@ c #497FC8",
"# c #517FC4",
"$ c #4E80C6",
"% c #4E82C9",
"& c #5282C6",
"* c #5B86C6",
"= c #5D89C7",
"- c #5385C9",
"; c #5987C9",
": c #5689CB",
"> c #5B8BCC",
", c #5F90CF",
"< c #5E8FD0",
"1 c #5E92D3",
"2 c #5F96D8",
"3 c #6289C7",
"4 c #628DCB",
"5 c #698FCB",
"6 c #6491CE",
"7 c #6A93CE",
"8 c #7096CF",
"9 c #608FD0",
"0 c #6395D3",
"q c #6B95D1",
"w c #6599D6",
"e c #6C9BD6",
"r c #659AD8",
"t c #6C9ED8",
"y c #7097D1",
"u c #739CD4",
"i c #7A9ED5",
"p c #729FD8",
"a c #789FD8",
"s c #6FA0D7",
"d c #6EA0D9",
"f c #74A1D6",
"g c #7BA2D6",
"h c #74A2D9",
"j c #7BA4D9",
"k c #7FA8DA",
"l c #83A4D6",
"z c #89A6D7",
"x c #83A6D9",
"c c #89A7D9",
"v c #84A9DA",
"b c #8CAADA",
"n c #92ADDC",
"m c #96B0DD",
"M c #9BB3DD",
"N c #A1B6DE",
"B c #A4B9DF",
"V c #A9BCDF",
"C c #A6BAE0",
"Z c #AABCE1",
/* pixels */
"&&**33**#*# o###&#&&333353****####OOOOO##X#XXXXX  X             ",
"&***3==**##oo###&&*&3455533#&&&######OO##O# XoXXXXXX            ",
"###&&==*#OooooO#&&&=5555553*&&&###O###O#OOOooXXoo X     .   . ..",
"####&&***#ooOoooO$&=5445753*&&###OOoXX#OOOOoooooooXXo o o . .  .",
"OOO#O#$&&&&O#Ooooo$&==34533*&#OOOooOOO#Xo#oooooooooo o o.o o... ",
"#oOO#O#$&==&##oOooo$O&&*==*&#OOOOOOOX###OOO#O$$$o#ooooO o.o .oo.",
"#OO#O$#$&==&&OOOo$ooOOoO@##OOOOoOOoooOo##$$$#&&$#o#oooo .oo.o...",
"O##$#$$$&&&&&OOO$o$$OoO+++o++ooOoo#oOOOO#$#$#$&$###O#oo#$..ooO.o",
"&$&$&$&$O&$:&&$O@@@OOOO+OOOO+o+@#OoO$$$$&$#$&$&&&&$$$$oo$.oo.o.o",
"$$&$$&$$&&-&=&$$@@O@O@%O@@O@O++@o#OO$$$$&$$$$&*&:&*:&&$$$$$ooooo",
"*$&&&-&&&--&&:-$@##-O@O$#@#@OO@#$$O$$$$-&$&*&&&&&&&==:&$$$$ %.+.",
":*--&--&&&&-&&:--@@@%@%O@#@@#@@-$$O$$$&&-$&&&:$&&::=*=:&$$$$++++",
"===:=::-&--&:**&@:#@:@@--#-@@--#$$$$$-$$$-&::&&::*&-=>==:$%o%+%o",
">=4>===::*::::=::#@#@@-##-@-%--@$:-$$-----&:*:*:&:*:>=>,=-%%%o++",
"4444=4,===,:=:::;;-@:#@---:#---@$--%---$&--::::::*:::=>==-$%%+%+",
"4444466,=,==::>=>>;:::--@@--%-%%--%----$-->>===,,=,=>:=>=-$%%%%+",
"6675466644>4>>>>6>>>>:*--#-@--:%%:--------*>>>446=,=>=>>>>-%%%%%",
"7777655776494>>>:>>4,4>>:::-@-%%%%--:::-:::>>>66,64,944444:%%%%%",
"77776766649>>>>>::::::>>:::::---:::-:---:*:==,>4466664669>:---%%",
"877877766764>4>>>::=:::::::::--%:%--::::--::>6,46667q7qqq44::%%%",
"85887777q9759449<>><>:>:::::::::%:::-:::--::>066666qq77q664>::%-",
"liii77785qq7qqq649<><>><<:<:::::::::::::-:::>>6,66677qqyqqq6<><1",
"lzl878yyy8qqqq9qq944<4><<><<<:><::::::::1::::,>,>66qqqqqquy7qqq1",
"zzl8ii8uyy8qq7q7qq0406694999999><<:11::::::::>66666qqqqyu8uqqq7,",
"zzilllli88787qyyqyqq9q405q4099q411><>::>>>::<<>1667qqyuuiiu8u8q7",
"zzilzzlll8y7q8yyyyqqqqqqq006q4901<<1<::>>>1<116,,qqq8uuyyii8u8qq",
"lllzzzzzlyyy8ii8uyqqqyy8qq7q0090<1>>:<><>>>061,q6qqquiuyyggiuuqq",
"zlllzlzllliiiilliuuuyyyiuuqqyyq0<><,1>11060qq66qq0qyuiiillliuyeq",
"nzlzzzlllllllllllllillzzclllliyq1>1411600qqqqqqq0qquugllvzzguqqq",
"8lznnllzllllllcnnnbnzzbbbbnbllaq01<91106qqqqqwqqqyglljgiglzgu8q0",
"8iizllzznclzcmNCNNNmnzbbbbbclllauq00060000qqqqquizbvzlgiilnzzgyq",
"8888iznnMMncMNBZVVVNmbnbnbbbccxguyqqqq07qwqqufibMMnbzllggznnnzgs",
"qqeqiznMNMMMNVVZZZCCMMmmnbbbbbviiuuyqqqutyeyaxMCCCncvxxaicmNMcgl",
"q6qqyiiglnbnNNNNCCMMMmnclvcllvaauuuppuuaaaaixMZZCmbcbvxagnBCMblv",
"10qq,,006guqznnmnMMmnnblllvlliiuquuiaaxxvvvbMCCCMbbcbcxvbMZBMnnn",
"yuuq0,1,,7qqquglvcbbbcxglglvlauufupuixxnMmMMCnnbbbcxvbbnMCZNmmNm",
"q000,2,1,,10q00euigllcxlajxxxgjgaupualmMCCCCMnnbnbvbbnmmMBBMnmNm",
",,,,1,,,112,101100uuuaaaglxxxxiuyeeuaxnCCZZZNmnbnnbnnbbmMNMbnMNm",
",,,,,111,1,,111,<0wqryyeupaxxjjgyreujxcmCCCNnnbmnmnbbbmmmMmvbNNm",
"12,111,1111111101111000qrqqalxllxxauppaxbMMbkkxmCMmnmmmbmnblzMNm",
"0000006,112,111110111110000wsjvlvxaautupaxnxljxbmNMbbbnbvvxxjmMm",
"1002600w06002110<20121<210100qjjaxaaputuaajapfjxbnxjvbbvxxxjjbnb",
"00,,000q0e01120111212002211200fuaaxaapauuttewufuhpqujjvvxxjxjjvv",
"q0eqe0q00000010002022101102000weuaaajjxatue0weww0rrpftjjvvjjajpp",
"eeyys8qeue0qw0000000000002000220wetpgjxxauteq002220reweeujfetrrr",
"eessfgfffqe0wrrqr00000r00w02002000rrpajgaprq0r22222021w00erw00wr",
"6eqe8fglguuuqppprqtqrr00w000w0000000uuajppprr0r2020r222220022200",
"e6e0eqsglxjiggjtuftqeurrw0wwwwwwrrrrrrtpjptr0r0r02r2w2022r222022",
"wew0wqwesggllgfffeeqeettqrrerrrrwrwrwwwwtjhrrr2rrw2rr2wr22222222",
"wqeqwqeeqsffkkgggffftettuhettrqrwwerwwwwrrphdrrrwwrrr22wwww2wwww",
"e0eeqwee00wsfgzkkgjgjffutututttrqrrrqrerrrrrrrrrwwrwrrrrwrrww2ww",
"qweeeewwsqsesffgjgkkfjjfhtttuuttdutqrrrrrrdrrrrdwrrrrrrrr2rrrwww",
"seeeeeeeeeew8esfjjkxjjfsttdettttttttttrttrrtrrrrwdrrrrtrrrwwr2rr",
"eeseeeeeeeeeeessuhjlvjfstesedettpdutttrtttredddhfdtdttrrdrrdrdrr",
"sseeeeeeeeeeeeesefffjlkstdettttuthhtpttphppjkkkmbbvkjhdtrdrrrddr",
"esessssssssssesesetshfkfhthdddhtdthhhhhjjhgxvkkvvvvvkhjhsddddrrd",
"8ssssssssessssssddsssshkjddddhhddhhahhhhhhhhhhhhkhhhhhhhsshhdddd",
"fffssssssssssssesddssddsjjddddhhphhhahppdddhdddkkkhdhhdhhhdddddd",
"sff8ffffsfsffsssfsssddssdhhhdddhhdhhhhhhhdhdhhhhhhhkkhhhhhhhdddd",
"fffsfffffsffffffssffsssshdhhdddhhddhhhhhhhkkhhkhhhhhhkkhhhhhhddd",
"ffgfffffffffffffffffhhhhhhdhhhdhhhhhhdhhkkkkhkhkkkddhhkhhhkkhhdd",
"ffggffgfggffffffffhhhhhhhhhhhhhhhhhhhhhhkkkkkkhkkdhkkhhkkkkkkhhd",
"ggffggfkggffffkfjfjfffjhhhhhhhhhhhhhjhhjhhkhhhkhhkkkkkvkkkvkkkhh",
"fgggfggfggkkgjjjfjhjfkhhjjhjkhkhhhhhhhhjhhhhhhhkhkkkkmmvvvvkkkkk"
};
