/* XPM */
static char *_500580943075[] = {
/* columns rows colors chars-per-pixel */
"64 64 75 1 ",
"  c #E3E2F0",
". c #E5E5F1",
"X c #E5E4F2",
"o c #E6E5F3",
"O c #E6E6F2",
"+ c #E7E7F3",
"@ c #E7E6F4",
"# c #E7E6F6",
"$ c #E8E7F5",
"% c #E8E8F4",
"& c #E9E9F5",
"* c #EBEBF5",
"= c #E9E8F6",
"- c #EAE9F7",
"; c #EAEAF6",
": c #EBEBF7",
"> c #ECECF6",
", c #EDEDF7",
"< c #EEEEF6",
"1 c #E9E8F8",
"2 c #EBEAF8",
"3 c #EBEAFA",
"4 c #ECEBF9",
"5 c #ECEBFB",
"6 c #ECECF8",
"7 c #EDEDF9",
"8 c #EEEEF8",
"9 c #EFEFF9",
"0 c #EDECFA",
"q c #EEEDFB",
"w c #EEEEFA",
"e c #EFEFFB",
"r c #EDECFC",
"t c #EEEDFD",
"y c #EFEEFC",
"u c #EFEEFE",
"i c #F0EFFD",
"p c #F0EFFF",
"a c #F1F1F9",
"s c #F0F0FA",
"d c #F1F1FB",
"f c #F2F2FA",
"g c #F3F3FB",
"h c #F3F4F9",
"j c #F0F0FC",
"k c #F1F1FD",
"l c #F2F2FC",
"z c #F3F3FD",
"x c #F1F0FE",
"c c #F1F0FF",
"v c #F2F1FF",
"b c #F2F2FE",
"n c #F3F2FF",
"m c #F3F3FF",
"M c #F4F3FF",
"N c #F4F4FC",
"B c #F5F5FD",
"V c #F6F7FC",
"C c #F4F4FE",
"Z c #F4F4FF",
"A c #F5F4FF",
"S c #F5F5FF",
"D c #F6F5FF",
"F c #F6F6FE",
"G c #F6F6FF",
"H c #F7F6FF",
"J c #F7F7FF",
"K c #F8F7FF",
"L c #F7F8FD",
"P c #F8F9FE",
"I c GhostWhite",
"U c #F9F9FF",
"Y c #FAFAFF",
"T c #FBFBFF",
"R c #FCFCFF",
/* pixels */
"4q-qm9q3:3-qb444:mm9hmmZbqbZZLm:qjqbbZZgk:9kmm9kkmSj:tjtbbsmj9:$",
"-q:9b9qjqjqqqqq-:q9mPZbhbiismLPqbtqbbmZZm77jkSkkkkmmjmj::tmZ9q:$",
"+qqqbqtjbZbtiii$:qq-bZZsqqq,-9m9tqqqbmZmSk:*jSmmkkSSmmm9qsbmmm:+",
"+,:qbq3:mmsiibiq-bs,qmgsqqqq&+:qqtsbbmmmSk:+*jmmkkkmmLm9ZZbmmm9:",
"3q:qmq-$bbqqiib4qiMZbbbbZbbjqq--qtjbbZZZmm7*O$wkk9kkSSm7mLLZ9mjm",
"bb,,m9:3-sq--qi4biiMmZZm9sbjbmbq,qtjbZLZkSm9*$:9kjkkSSm:bZmLmmmm",
"ZZqqm9j9&si*@$t4q4qb9ZPZ:sbbsbbbtq39bsZZmSkmj7k9jjkkmLS7qbjmmLmj",
"bZbbmbjm,bbi$ 4i3$4ZbbmLLZsbb9qtb-@q9q9ZmmjmSkmk:77:9LL9:bbLmLmm",
"PZbbbZbq9bmjm3-qqqibMZZPPZMMbsqtb-,-4t*bMbqqwkmmq9jbbsZPqqsZbZPP",
"KZbbZZbbqjjjmq9mqqqbbqmZZZKPbq4bq&,--i$3Mb9q::jLbqqbMsMPLbqbbbZi",
"ZZMZPPKMq9jjqqbbtqtbq:,bsbZPPbss-+q-4i--9b999**mZb9bbbbbPZmbqbbb",
"ZZbbMKPPm9bj9q44bqbZbq,qbbbbZZbq9-::ibqbjbqqk:$7qts,qZMbZLPZZbbb",
"sgbssZZPZbbb9q:-q:9ZKhisissqbZZsZ9qqbtqbbm9::q*::tb4qbbbZZZLZbbZ",
"sZbbqbZPPmbmbbqq,qbLTPZsbZZbMPPZZmbqqqqqqb9q::$$,qqqq3-qmbbbZbsm",
"ZZZbbbsbZPmLZm:9,qiMPPKZZZLZZKPPmmmj:-q3+:bb9:$.+--33-ttsbq9b9jm",
"PPZZZZssbPZPLm:9++-*bKPPbsbbbsbZbbbbi-3t-+:9::+.qiq---3@:bbjj,qZ",
"MMZPKmbt9mmLLmi-,&--:9LLhhibqMZZPZgsbq-+:&q4*t$+&ssq:jjj1tZbqbqq",
"4bbbqsbq:q:hZbbb-q--,,qPLZsMibsbPPZZbs4q&+-3iMt@&q9q:jjmjjZbbbqq",
"3iMMsqqq:qqZLbZP,mq3sq,mPZibiq-bgPPZbbbsss--4qb-::9jjjmmZbbbbb4q",
"44bKZq4tq99ZLbZZZsbbbss,KZbsbi,9hKKPZZZZLLbq$@tt::9m99jmZbt99q4q",
"t:,sZ9tMq:qbmmmjbiqiqjbqZPZsMbqiMZPPPMbKbZZb::bbj:jjjjmmmmm9qq9q",
"qt9qsbbtq-:,qbZ9,bi4qqqmMKPZZbbqKZKTPZsZbbqbq:btmjj9::jjmLLm9q99",
"qt9q4bbttq::-:m9-bq4it:biMPgPZb5ZPKZPZZsZbbq::::jjj9q::jmZmhmjjq",
"----$*bZq:-q++j9bqqbtibqbsZKTZMtsZKZgZZ9mbLmj9:q-jbjmj9jsm9mm9b:",
"qs,--+-:qt3-:-+qqmbqi-i$5tiMPZMbZsZPKPKhsZZZb,:j99:9bj:mmLsZZbZZ",
"ZZms,-:::jq:q-&9,mtjbqM454,iZsiqZhMPZPPKbZZZbq:qj:$:jb99smsbZZZP",
"ZPZmqqqq3bbqq--,qqqbMibbi4sZZZbZbqsgZKPMssqZZqq9mj:$:bmmLPZZZMZP",
"ZZZZ9bst4MZtqq--9,qtZbZbq-bbZKbPMi9sMKPZgs9MZ99bmmb::qmmPPKZZbbM",
"ZZLZZZZ9qZbbib9,bqqtmbKKs-tqiZsZLm,-qbZZKPbZmjj99mSmq:,:gZbibMbb",
"bsZPZPZqqqbqibZms:::b9PPZq44qisKZZq:qsbsPPZZLLmj99jk9q9qgsbiibqb",
"q-qhZMZb,qqqqsZZbqq:j9ZPZsq334,gZPZbZZsbhLmsZLLmm:7j,3bMPPZiibqt",
"b-&,,sbsb9qq3qZZZb9qbsZPZZ4bbqsZPTZbbmbbZLs:qZLmm99mq$*MPZMiiMib",
"qb4bZss99mmjjjjmLj:jq9ZPPZq,bMMMZPZPmbqbmLZj:bMbbisM4-q:mLPZgKh*",
"it4bLZmm9mjj:9j9mqjj99bmZZZqibiiZM9mbbqtjmmq3tM4iisbbq9jZLTPLPZi",
"MbqsZZZL:mj::jj::::9:qjq,bbq44q4bb-qqq34:9Z9-qbibbiibqsbZZRPPTPZ",
"KZbZZZZL:mm99mmt$$::::bmsqqi4iibqsq,,-4q9qbmbiibbbi4qbqbbZZPPPTK",
"MMMMmmLLmmmjqmm9:::::9mLZsbbttMZLm9qs9btZsqmZmbqqbb-4Mqsb9ssMKKM",
"qMbMmmmLmmmj:mLjj7:9::9mbbZZqqbMmmmbbqibbjjqqbZb4tb--i,-qq,ssZZb",
"qbq9mmmmm9mm:bZjjjjj,:qj:qZPqq9qjbm99:qb:jbj:,mmq3q-$i$-qqsssZZb",
"b9-:jmmmm9mm99mjm:jmq-q9,&sZbqjqbjm9mqqqbqq9bsqqb$4-4iqqqsMs,sbq",
"9j+,bq9Lmbjm9mm:j3tqqq-b4X+4iiqqqjLmZZ9bbb3bssbZ9+---:qbb-mZm9bq",
"mb-+9mmbbjbq:bmqj:-3q--qb-$ibb9qq9jjZLmPbMqqisbZZ---@-qMZqbmmmL9",
"mmb::mmm9jj::9jjjb3qiqtbMt4ibMb,jtj9mLmZMZmsbiZPTbq--$qbs,b9bZLm",
"bjZb::qmjjq99::j3jq@q444biiqbMZqtt9qmZbqbZZbZbZZPZbi-@-bqqmmbmZL",
"L9mmb9q9jt9bmq,i344+$q-4qqbqqmZZ$:--9ZZqiqZbZssPZghbq$*bibZPbsZP",
"bjbmZLmmb9bbmMbib4b--q-4itiq:sZPqtq--bLbiqssZsMPPZbMb-qbbsbZZb,s",
"-jjjmmmZmb9bsZKMMtMi-qq-ittbq:sZbbbq:,LmbiiisssRPPMZZq4bsb,ZZZss",
"bZ9bZbZLP9qbsZPZiiMKiqM4bqbZ9,qq:ttb,-mbiitq-ssPLPsZKi4qbZMZZPZP",
"mLZbbsbbZZbt4sZPMsZPZiqmmbqbZb,qqq$jm:bmsqqM-4qibZsbmbjjbmmbZPZb",
"mLZssq4bibbbMMZKPgsZb,:q99qbPZbsjt@:9-qsZb-iii$iMKMbbjj::9qtZZbb",
"sZLZZsqq<i,iMbbPPZbbsbqq99:9ZPmjmm::q:iqmPb*ibq4bPZZjjmj99::MZbb",
"bZPPZZbbZZ,*tisZKPZbMZbs::q:bLLmPL9q99bsbZZb-ib-*sZZjbLLLmbqiZZZ",
"ZZPKZZZbbLm9bbqbKKKbbKPZ:jq::mLLLPbb9ttqb,bZi-3t3,9mb9mmZLbq3bZs",
"ssZKZZbijmmbMbsqZPKMbZPPmmbq$:mLZLZtqqqbqqqsZq-b:q:mj:qjbmb3-qm9",
",9ZPgZZbjbbjjbb9ZPPZbZZgmmmm9:mmZPZZbqib,bs:bb9q,qqjb:q9qssb,qmb",
"ZsZgssPKmqqbbb9bbZZZZZg,jqmLmjmLZPZbsbtZZmZbt:b--99jmjbmm9btqqbZ",
"ZTRZ9ZZZmmmLjjj9:9bjmLPst3qsbmLLsZPPZi*tmbmLmms-+:j9q9bbZqbjtbZb",
"ZZPPPZPPmqjLmjjbqqjqjLPgb:----bZZsqsZKbq,:9mZLZq+-:9sqqbmqb9qbZm",
"MsMZKZZPZ::m9qqbjj9-:ZPZii:3++,ZZg,qbMbb---:bZm::$:mZbbMb9q-q9bb",
"bbsMMhgZLbq9::qbjb9,qmLmibb9q-:ZKZZsibbZs,:--jbq::9qbmZMmbq+qbqb",
"MZbbZZgZbbsZmbjmbbbqqMZstbibi*-qPPZbZZZPZZb,qbbm$:q$-qZbZZ9$qjqZ",
"bZZZZZZsMZbPLbsZPZMsqZKsiiiib,-+ZZZZZPZKZZPb9ZbLqq:$$qbbmm9-:bqZ",
"iMZZZZZqMZbmmjqbPKZbsLPMiiiiib,+bbZZZZsZbmPbbmqmbbtq--qbbmj3:9:9",
"4bZssmZbqZsmsbq:bZZbbLZbiiiibZb&iisZZKZsbmPjbmqbtbq3-3--bmm9tq:q"
};
