/* XPM */
static char *_500573302419[] = {
/* columns rows colors chars-per-pixel */
"64 64 200 2 ",
"   c #66676B",
".  c #68696D",
"X  c #6C6D71",
"o  c #6D6E72",
"O  c #6D6E73",
"+  c #6F7074",
"@  c #707176",
"#  c #717277",
"$  c #727377",
"%  c #737478",
"&  c #737479",
"*  c #747579",
"=  c #74757A",
"-  c #75767A",
";  c #76777B",
":  c #76777C",
">  c #77787C",
",  c #78797D",
"<  c #797A7E",
"1  c #797A7F",
"2  c #7A7B7F",
"3  c #7B7C80",
"4  c #7B7C81",
"5  c #7C7D81",
"6  c #7C7D82",
"7  c #7D7E82",
"8  c #7D7E83",
"9  c #7E7F83",
"0  c #7E7F84",
"q  c #7F8084",
"w  c #7F8386",
"e  c #808185",
"r  c #808186",
"t  c #818286",
"y  c #818287",
"u  c #828387",
"i  c #808487",
"p  c #828388",
"a  c #838488",
"s  c #838489",
"d  c #848589",
"f  c #84858A",
"g  c #85868A",
"h  c #85868B",
"j  c #86878B",
"k  c #86878C",
"l  c #87888C",
"z  c #87888D",
"x  c #868A8D",
"c  c #878B8E",
"v  c #88898D",
"b  c #898A8E",
"n  c #898A8F",
"m  c #8A8B8F",
"M  c #888C8F",
"N  c #8A8B90",
"B  c #8B8C90",
"V  c #8B8C91",
"C  c #8A8E91",
"Z  c #8B8F92",
"A  c #8C8D91",
"S  c #8C8D92",
"D  c #8D8E92",
"F  c #8D8E93",
"G  c #8E8F93",
"H  c #8C9093",
"J  c #8D9194",
"K  c #8F9094",
"L  c #8F9095",
"P  c #8E9295",
"I  c #8F9396",
"U  c #909195",
"Y  c #909196",
"T  c #919296",
"R  c #919297",
"E  c #929397",
"W  c #909497",
"Q  c #949597",
"!  c #929398",
"~  c #919598",
"^  c #939498",
"/  c #939499",
"(  c #929699",
")  c #93979A",
"_  c #949599",
"`  c #959698",
"'  c #95969A",
"]  c #95969B",
"[  c #96979B",
"{  c #96979C",
"}  c #94989B",
"|  c #95999C",
" . c #97989C",
".. c #969A9D",
"X. c #979B9E",
"o. c #98999B",
"O. c #98999D",
"+. c #999A9E",
"@. c #9A9B9F",
"#. c #989C9F",
"$. c #9B9C9E",
"%. c #9C9D9F",
"&. c #9C9BA0",
"*. c #999DA0",
"=. c #9B9CA0",
"-. c #9A9EA1",
";. c #9B9FA2",
":. c #9D9CA1",
">. c #9C9DA1",
",. c #9E9FA1",
"<. c #9E9DA2",
"1. c #9D9EA2",
"2. c #9F9EA3",
"3. c #9E9FA3",
"4. c #A09FA4",
"5. c #9CA0A3",
"6. c #9FA0A2",
"7. c #9DA1A4",
"8. c #9FA0A4",
"9. c #9EA2A5",
"0. c #9FA3A6",
"q. c #A0A1A3",
"w. c #A0A1A5",
"e. c #A1A2A4",
"r. c #A2A3A5",
"t. c #A2A1A6",
"y. c #A1A2A6",
"u. c #A3A2A7",
"i. c #A2A3A7",
"p. c #A0A4A7",
"a. c #A3A4A6",
"s. c #A4A5A7",
"d. c #A1A5A8",
"f. c #A3A4A8",
"g. c #A2A6A9",
"h. c #A3A7AA",
"j. c #A4A5A9",
"k. c #A5A6A8",
"l. c #A6A7A9",
"z. c #A6A5AA",
"x. c #A5A6AA",
"c. c #A7A6AB",
"v. c #A6A7AB",
"b. c #A4A8AB",
"n. c #A7A8AA",
"m. c #A5A9AC",
"M. c #A7A8AC",
"N. c #A6AAAD",
"B. c #A7ABAE",
"V. c #A8A9AB",
"C. c #A8A9AD",
"Z. c #A9AAAC",
"A. c #AAABAD",
"S. c #AAA9AE",
"D. c #A9AAAE",
"F. c #ABAAAF",
"G. c #AAABAF",
"H. c #A8ACAF",
"J. c #ABACAE",
"K. c #ACADAF",
"L. c #ACABB0",
"P. c #A9ADB0",
"I. c #ABACB0",
"U. c #AAAEB1",
"Y. c #ABAFB2",
"T. c #ADACB1",
"R. c #ACADB1",
"E. c #ADAEB0",
"W. c #AEAFB1",
"Q. c #ADAEB2",
"!. c #AEAFB3",
"~. c #ACB0B3",
"^. c #AFB0B2",
"/. c #ADB1B4",
"(. c #AFB0B4",
"). c #AEB2B5",
"_. c #AFB3B6",
"`. c #B0B1B3",
"'. c #B0B1B5",
"]. c #B1B2B4",
"[. c #B2B3B5",
"{. c #B1B2B6",
"}. c #B2B3B7",
"|. c #B0B4B7",
" X c #B3B4B6",
".X c #B1B5B8",
"XX c #B3B4B8",
"oX c #B2B6B9",
"OX c #B3B7BA",
"+X c #B4B5B9",
"@X c #B5B6B8",
"#X c #B5B6BA",
"$X c #B6B7BB",
"%X c #B4B8BB",
"&X c #B7B8BC",
"*X c #B6BABD",
"=X c #B8B9BB",
"-X c #B8B9BD",
";X c #B9BABE",
":X c #B8BCBF",
/* pixels */
"O @ @ % e m e U w x 9.J I I ) 5.) H ..0.*.( 7.9.h.b.5.5.5.5.~ 0.7.0.5.*.) ..0.5.h.0.7.0.0.5.) | ~ 9.<.' E l a m r u > 2 e 2 > @ ",
"6 : 1 a m l U n J $.I H I ..0.~ ~ ( ) 5.| ~ 0.b.0.7.| *.7...7.0.0.....*.5.7.0.7.0.7.0.h.b.h.7...9.' J n r r m ' a 2 r n 2 > > . ",
"k f n ' U r K n ( ..w ( ) 5.0.I 7...J 5.7.5.0.5.0.5.*.0...5.h.h.N.5.7.7.*.9.0.P.*.*.H.0.0.) 5.~ f n A E A E ( K x r E l e e % o ",
"p % 4 l 1 f E E $.) H 0.5.5...) *.9.0.0.*.5...| 5.| *.h.5.N.h.0.b.7.0.7.*.7.h.P.5.*.b.| 5.J ) c A ' +.' A E ' E E G U a t e % 2 ",
"% : r p p E E ' ) J I | ~ ) ..5.| h.5.) ) 0.5...5.5.b.b.0.0.7.5.7.7.0.h.h.b.N.0.*.9.7.*...5.*.5.<.6.9.&...' $.<.$.U a l e > e 2 ",
"% 0 V k A K E E ~ c ~ I I I I c c 5.~ ..h.0.7.h.7.b.h.N.P.H.b.0.7.h.0.0.7.9.0.| *.0.5.7.*.0.7.N.a.y.x.f.<.y.<.E j a G m a a 2 @ ",
"a S f 0 ' +.+.=...c H I ) *.0.0.7.0.| 5.b.0.P.oX0.).N.~.b.N.h.b.7.7.0.5.| | 5.*.b.0.5.0.0.0.7.7.<.y.<.' ' y.y. .l a Q e 2 m e e ",
"a F k N E ' E ' I w ~ ..5.U.N.0.~.h.~.H.~.|.|.0.0.h.0.7.5.b.0.0.0.*.0.0.h.N.N.N.N.0.7.P.0.b.7.7...i.y.+.+.' n n A f U m a a a U ",
"@ 0 p f A K E <.=.~ 5.0.5.0.N.h.H.b.0.0.h.0.N.0.0.0.9.7.H.b.h.b.*.7.).).0.h.N.N.H.*.7.7.*.h.N.h.B.C.6. .E A U r G l A ' r E n r ",
"f 6 p E ' $.<.9.5.9.9.7.b.~.N.9.b.N.0.*.7.*.h.~.N.H.).H.P.b.b.b.H.~.b.0.N.).).0.N.h.h.0.0.0.b.0.<.9.=.=.E ' s.9.' $.' A E ' l u ",
"! A ! ' A ( y.x.7.h.9.7.N.N.0.*.7.7.0.h.b.0.N.0.b.b.).~.b.0.~.H.7.h.5.h.~.N.).0.b.~.H.~.~.h.b.h.x.C.<.<.x.x.y.<.%. .' E U G m m ",
"k E { ' ' =.=.' 5.0.N.N.h.h.b.h.0.0.0.b.b.h.b.7.*.5.b.b.h.0.N.h.0.b.N.|.H.0.P.h.5.h.N.~.P.0.0.7.+.3.y.x.C.<.+.y.4.<.6.' f U l w ",
"k ! F A ..<.{ E 7.5.9.5.5.h.N.9.5.h.0.0.b.0.N.H.b.b.~.b.b.0.b.h.~.N.N.b.0.b.H.0.7.7.b.b.0.h.0.h.Q.B.C.x.y.x.C.y.<.+.$.' ' $.j a ",
"E F ! ' ' ..+.<.h.5.( ~ ..5...( | 9.5.h.b.h.h.h.5.7.N.b.b.0.H.~.N.7.5.*.7.b.0.h.N.0.H.N.b.H.N.P.Q.C.C.3.' 9.<.' M.' E E +.f r A ",
"{ V N F ' =.x.H.h.0.5.5.0.....b.|.).N.).H.~.H.0.~.H.oX|.~.h.H.h.h.*.0.b.b.0.*.0.0.b.N.P.~.P.0.0.y.+.y.x.C.<.+.B.<.E Q f A f A ' ",
"N N E =.y.a.y.5...| ) 7.~.~.P.oX0.P.0.N.h.b.b.N.*Xb.0.5.) *.N.0.*...~.).N.H.H.H.N.).b.b.).N.h.h.x.y.M.C.C.f.+.<.+...' U $.$.A U ",
"p N <.y.9.4.<.<.| I ) 7.7.b.N.b.H.N.7.0.0.0.b.H.b.9.5.| 7.h.b.0.0.N.).~.0.9.b.H.b.b.7.b.~.0.0.7.( 9.B.0.0.| *.| =.=.! =.<.f.+.( ",
"' 3.y.+.+.+.' ..~ ..h.5.0.h.0.0.N.b.0.0.).~.~.N.b.b.h.h.7.h.7.7.0.b.H.b.7.9.b.9.N.b.7.0.5.9.0.0.<.B.f.5.b.0.0.| 9.7.y.x.<.9.' E ",
"+.x.f.' ' <.+.E 0.9.b.0.b.H.9.N.0.b.N.~.~.N.~.N.b.h.0.0.5.0.5.0.N.H.~.H.7.N.|.H.P.~.~.~.~.).|.0.9.~.N.h.~.0.=.( y.9.<.y.f.y.E E ",
"<.y.9.' $.C.x.y.H.0.0.H.b.~.H.~.~.H.H.).0.0.0.( 7.| | *.0.0.N.~.|.~.~.H.H.~.~.b.0.0.9.9.~.P.0.*.H.h...5.b.0.h.f.I.M.y.x.f.<.+.A ",
"E ' n a K +.9.y.5.h.H.H.b.0.~.H.0.N.H.0.9.h.~.*.0.0.7.b.~.h.~.N.|.).H.H.N.0...*.0.0.7.b.H.H.5.*.~.N.B.oX_.~._.I.U.Q.x.<.=.K A A ",
"A ^ a r E K A =.5.N.0.0.0.5.h.b.~.~.b.b.N.0.b.h.H.oX).*X~.b.N.N.*X).9.7.H.0.*.7.|.H.).|.P.b.0.b.B.H.H.B.*.6.B.9.x.+.y.' K E A A ",
"q.y.+.+.y.=.<.y.0.b.*.0.0.5.0.P.H.H.H.oXb.7.b.).H.~.~.~.h.H.~.|.~.N.7.5.b.0.b.|.H.0.H.0.7.7.0.b.f.B.<.=.( i.I.f.y.{ y.( <.y.' =.",
"4.+.+.3.' +.x.9.*.7.b.h.9.0.P.~.).N.~.).h.h.oXh.~.0.N.*.5.b.b.P.7.*.....0.0.0.0.0.H.~.H.H.).b.P.f.U.x.x.9.M.I.I.<.+.n.<.9.y.<.y.",
"K E <.x.<.9.y.C.U.oXU.B.~.N.).oX0.7.~.H.).oX~.b.~.H.b.N.0.H.N.~.0.*.7.*.*.0.H.~.N.|.P.b.0.N.N.H.C.Q.B.x.y.U.x.<.<.=.M.x.<.+.<.' ",
"..y.<.y.Q.<.V.I.f.~.~.U.H.H.~.0.5.7.h.b.H.~.H.H.N.0.0.~.~.N.b.N.9.5.H.H.N.).|.).H.~.P.b.7.0.N.0.4.x.x.y.<.x.a.y.9.x.C.y...+...K ",
"..f.' +.+.' y.C.N.).h.9.h.7.*.7.b.b.h.P.b.N.N.N.0.0.0.H.0.h.h.5.0.N.).~.~.|.P.N.f.).).B.0.b.H.*.E <.x.<.' 9.y.y.y.i.y.y.+.y.y.y.",
"L +.=.$...<.y.x.N.f.7.=.7.0.N.|.~.N.H.|.h.b.b.h.N.N.H.).0.5.b.H.0.h.H.0.9.b.0.5.H.~.b.h.H.7.h.0.y.C.C.M.x.C.Q.Q.C.n.3.3.+.<.y.x.",
"<.=.$.E 9.y.{ C.5.7.0.0.N.~.H.b.oXN.oX%X).).~.P.~.h.h.h.h.b.N.N.N.~.~.0.b.~.H.H.N.B.0.0.b.7.f.B.C.n.B.C.L.C.C.Q.x.C.x.+.+.<.<. .",
"..' +.<.x.+.E y.0.0.5.9.).%X~.%X|.H.|.H.oX).b.N.7.5.h.h.h.0.0.).H.P.~.N.N.P.N.b.B.H.H.0.f.~._.B.C.x.x.y.x.M.x.<.<.y.x.4.x.y.=.E ",
"' E +.x.y.x.x.'.|.N.).*X%X).N.H.H.H.0.*.b.b...*.5.N.).h.H.b.N.~.H.).~.b.H.N.0.b.|.b.b.B.h.~.I.U.S.L.C.f.S.L.L.y.f.x.x.B.C.6.( J ",
"<.9.u.<.M.Q.C.C.N.~.|.P.b.5.) 0.H.P.7.5.h.~.0.0.N.~.H.H.).9.0.~.b.b.b.0.0.h.0.N.b.0.0.0.0.H...i.z.&.&.4.c.&.4.y.y.C.y.9.<.<.E n ",
"<.y.y.x.<.f.x.x.M.C.x.y.x.y.x.L.Q.x.4.M.Q.!.I.B.L.C.Q.Q.C.y.C.C.f.9.x.I.x.M.C.x.y.<.y.+.x.Q.M.y.<.4.y.y.i.x.x.I.Q.C.y.<.=.' { K ",
"y.y.<.' ' x.C.y.'.+X+XXX'._.Q.Q.C.C.Q.Q.U.Q.I.n.x.Q.Q.U.C.Q.C.Q.U.H.M.M.C.Q.!.(.Q.x.n.C.'.'.B.x.9.x.C.C.Q.'.Q.+XQ.Q.I.y.i.I.y.=.",
"=.6.9.<.i.x.M.C.(.Q._.(.Q.C.C.x.C.Q._.L.L.I.x.<.Q.Q.C.Q.I.M.<.C.'.Q.C.M.C.C.I.C.U.Q._.Q.Q.C.<.f.Q.'.Q.Q.'.Q.y.x.I.M.C.+.' $.A A ",
"=.3.y.y.C.y.f.U.C.x.C.L.x.x.C.I.C.U.C.C.I.y.<.<.Q.C.<.x.y.y...C.}.C.B.x.f.x.B.4.c.x.<.y.i.Q.x.C.Q.Q.C.x.I.C.x.x.I.i.i.+.E A f n ",
"K ( +.{ C.I.Q.L.y.x.(.Q.y.x.Q.I.y.M.C.C.x.y.y.Q.x.C.<.x.x.Q.u.'.'.M.i.y.<.x.C.x.C.f.y.C.Q.C.<.x.C.y.&.=.+.y.C.M.n.<.+. ...@.+.y.",
"=.=.<.y.x.x.x.x.f.(.+Xc.y.I.'.Q.C.'.Q.C.C.x.x.M.C.Q.I. X'.H.y.n.x.i.y.y.y.x.C.C.y.x.x.Q.Q.I.9.x.C.y.y.x.3.i.M.y.f.' ..E  .x.<.4.",
"a.<.<.B.y.y.x.!.<.B.x.<.y.C.Q.C.y.Q.C.x.Q.'.C.Q.x.B.C._.C.<.' +.<.f.M.C.M.x.C.C.C.'.'.<.&.<.y.C.n.B.Q.}.Q.Q.C.x.C.9.<.=.<.9.'  .",
"' ' +.C.x.C.B.a.<.f.f.C.+X+X'.'.x.L.U.L.(.x.y.M.y.x.x.<.+.y.C.'.Q.Q.+X}.x.M.!.!.oXQ.C.<.x.B.x.C.i.x.M.M.i.i.x.x.i.x.y.C.a.' +.+.",
"i.B.x.f.B.f.=.9.i.C.'.Q.x.Q.Q.Q.Q.x.I.Q.C.y.+.f.C.Q.x.y.x.'.;X'.Q.'.!.!.C.C._.C.x.y.a.3.Q.'.Q.C.C.Q.!.Q.C.M.C.C.x.i.f.B.y.+.<.+.",
"{ +.=.$.<.<.y.x.M.Q.'.y.x.C.C.Q.M.y.C.+X!.'.x.C.S._.C.C.C.Q.'.Q.U.C.y.y.y.<.4.Q.x.<.C.U.x.C.C.'.Q.I.Q.Q.C.x.M.I.Q.C.C.y.E ' +.V ",
"E +.<.+.<.x.!.I.x.Q.Q.=.C.'.Q.Q.Q.C.M.+X'.!.3.C.'.'.C.L.Q.C.C.C.C.C.<.y.C.C.Q.C.y.Q.Q.C.y.C.x.M.=.i.x.x.M.I.I.C.C.=.4.y.E N K E ",
"E f E x.Q.Q.Q.x.C.}.'.Q.'.;XQ.Q.'.C.C.'.C.C.x.C.'.Q.x.x.C.Q.'.C.+Xy.x.C.C.x.y.y.C.Q.C.x.M.Q.x.M.I.!.Q.M.x.C.C.x.C.y.x.<.+.y.9.+.",
"y.{ <.Q.x.y.n.B.M.C.Q.!.C.C.<.y.y.Q.Q.f.Q.Q.'.Q.C.C.C.x.x.C.C.c.Q.Q.C.(.y.' x.'.Q.Q.+X'.!.Q.+X'.+XU.M.M.x.3.y.x.$.<.9.<.+.' A +.",
"x.x.Q.C.+.<.C.Q.Q.f.!.Q.C.x.x.x.Q.C.L.C.'.'.+Xy...<.C.M.y.<.+.y.Q.!.C.M.C.C.'.+XQ.!.'.Q.I.x.Q.C.<.=.<.x.M.x.y.i.=.y.y.+.<.' m E ",
"+.K E 9.i.f.C.C.Q.y.C.C.C.Q.'.Q.+X'.C.C.XXB.x.<.+.y.'.!.Q.~.Q.~.!.C.9.C.'.C.M.y.M.x.=.y.C.+.+.y.+.9.f.C.I.I.x.+.y.C.y.+.6...E ' ",
"=.K K +.<.3.M.Q.'.C.x.C.V.+X'.Q._.C.y.x.C.x.C.C.3.x.C.q.y.Q.f.+.y.x.C.Q.M.f.f.<.M.y.=.I.C.C.C.C.x.x.x.x.B.f.<.+.'.I.+.' y.<.E A ",
"A ..+.<...y.9.y.M.C.'.'.'.'.Q.4.x.<.9.B.y.L.f.f.y.x.C.y.y.x.' <.y.x.M.x.6.y.x.x.s.V.K.K.W.].W.K.y.y.y.x.+.y.y.Q.x.y.<.$.=.E ( l ",
"E y.x.x.y.6.y.Q.'.'.+X_.C.C.6.<.<.y.x.n.C.Q.4.9.y.+.x.f.y.x.y.y.M.x.x.y.<.x.C.x.].K.K.V.A.A.V.V.C.x.y.Q.x.f.Q.M.<.<.<.+.<.K n a ",
"( x.f.+.<.y.'.C.3.f.x.<.3.i.f.Q.C.y.3.C.C.x.<.Q.f.9.!.M.x.x.M.M.I.C.C.x.B.C.C.x.A.V.V.s.q.q.q.s.x.4.C.(.C.B.C.B.y.' E A ' E A E ",
"$.=.+.<.<.<.C.' A y.x.x.f.<.B.C.x.y.C.C.Q.C.x.y.<.y.Q.x.x.C.L.(.C.x.Q.+XC.Q.Q.<.q.r.V.V.V.s.V.W.<.y.x.x.x.x.f.Q. .( y.' ' ( ' E ",
"+.{ ' ' +.+.Q.y.x.'.C.Q.C.y.Q.i.y.x.Q.'.I.Q.y.y.y.C.Q.x.<.x.x.x.M.I.Q.!.Q.Q.x.y.A.V.V.K.A.s.r.s.<.B.<.x.x.B.y.<.<.y.C.<.+.<. .U ",
"+.f.y.y.x.c.Q.x.x.C.y.Q.U.x._.<.Q.C.Q.x.C.x.x.Q.C.+X'.Q.B.'._.'.Q.'.'.Q.(.Q.C.x.K.q.q.V.K.V.l.l.x.C.x.C.y.x.<.+.f.C.C.E n f n m ",
"( E n [ x.y.y.x.<.C.x.y.<.&.C.C.Q.Q.Q.x.M.C.x.Q.'.;X'.Q.Q.'.Q.'.!.(.Q.C.Q.Q.V.y.V.r.s.K.].K.V.A.U.C.C.9.+.x.y.n.<.6.+.' +.Q +.%.",
"E A B +.y.C.y.y.C.Q.C.B.Q.(.Q.Q.'.x.'.Q.Q.y.x.Q.Q.3.i.x.x.<.C.x.Q.y.i.C.y.V.x.G $.%.V. X].V.s.K.4.C.<.<.C.C.x.y.3.( ( +.=.U +.' ",
"n +.x.C.&.y.+.B.C.B.B.M.M.Q.C.x.y.Q.C.i.M.C.x.Q.C.x.y.C.M.'.'.C.x. . .C.3.x.<.+.,.].].l.s.A.l.l.f.L.=.x.Q.B.+.6.=.=.+.A A G A q ",
"E ' J V E y.C.C.x.<.<.y.+.+.B.y.y.x.'.Q.Q.'.C.M. X+X'.C.C.oXC.y.x.=.y.M.y.C.y.U.W.[.].V.V.K.V.K.B.U.Q.Q.B.=.f.f.+...L ^ E m q 6 ",
"' A E ' y.y.Q.+.y.y.<.n.x.&.C.C.Q.'. X'.+X+X'.Q._.4.<.y.Q.C.&.y.x.y.x.Q.Q._.f.Q.].V.K. X].K.].].x.x.C.x.3.<.<.=.E ..' ^ +.E l E ",
"<.Q ' E y.<.y.<.+.y.+.y.x.x.Q.'.C.'.i.c.Q.C.Q.Q.!.x.L.x.Q.C.x.Q.C.C.C.I.Q.C.C.L.r.A.A.=XW.W.W.s.x.x.x...+.<.+.<.F <.+.l A m n j ",
"x n G E  .+.<.' =.<.y.x.M.Q.'.Q.C.H.C.'.'.Q.;XC.M.C.+XC.U.Q.Q.x.x.x.y.C.L.x.Q.x.V.[.K. Xs.V.%.r.Q.x.Q.y.x.y.6.' m U n f n $.G a ",
"q A e A ' ^ ' +.+.<.y.f.C.I.f.&.Q.c.Q.Q.Q.C.y.y.B.<.<.<.y.x.Q.f.<.<.x.C.C.Q.C.C. XK.K.K.Q s.q.H.C.x.y.<.<.+.A n <.E E ' U m f 2 ",
"l A r ' ' A ....a.U.f.y.C.x.y.x.Q.C.Q.x.y.<.' +.x.S.B.Q.B.y.x.<.+.n.C.Q.y.x.C.;XK.].].q.Q A.Q.n.C.Q.y.<.E E Q <.<.Q $.U j > ; O ",
"f n A Q A B +.=.<.x.<.B.x.=.y.f.Q.x.Q._.x.y.x.y.'.$XB.C.f.=.<.9.y.'.y.Q.'.'.Q.Q.s.].s.q.W.,.q.y.x.+.+.a.' ' 9. .E E A a - 2 -   "
};
